<?xml version="1.0" encoding="UTF-8"?>
<svg version="1.1" xmlns="http://www.w3.org/2000/svg" width="512" height="512">
<path d="M0 0 C1.82691092 -0.00935994 1.82691092 -0.00935994 3.69072914 -0.01890898 C7.05938512 -0.03207887 10.42714572 -0.02737303 13.7957468 -0.0149641 C17.43317772 -0.00590113 21.0705313 -0.0198895 24.70794678 -0.03088379 C31.82883471 -0.04866035 38.94955389 -0.04483292 46.0704484 -0.03323323 C51.85827932 -0.02419576 57.64606298 -0.02297625 63.43389893 -0.02732849 C64.67003117 -0.02824789 64.67003117 -0.02824789 65.93113577 -0.02918586 C67.60531093 -0.03046478 69.27948607 -0.03176163 70.9536612 -0.03307623 C86.64848927 -0.04447949 102.34322385 -0.03137231 118.03803658 -0.00987476 C131.50180428 0.007996 144.96543402 0.00489182 158.42919922 -0.0135498 C174.06826994 -0.034961 189.70725875 -0.04338088 205.34634209 -0.03110075 C207.01432163 -0.02982657 208.68230119 -0.02856908 210.35028076 -0.02732849 C211.17093572 -0.02671139 211.99159068 -0.02609429 212.83711398 -0.02545848 C218.61727976 -0.02200633 224.39739354 -0.02783102 230.17755127 -0.0372467 C237.22269051 -0.04847084 244.26765151 -0.045418 251.31277037 -0.02412373 C254.90660886 -0.01361878 258.50015028 -0.00948171 262.09398651 -0.02272034 C265.99088518 -0.03685814 269.88729851 -0.01996517 273.78417969 0 C275.48568648 -0.01338433 275.48568648 -0.01338433 277.22156715 -0.02703905 C283.62765491 0.03674218 287.86591024 0.36332082 292.89208984 4.50793457 C296.69719246 9.66245411 297.47420968 14.68716535 297.39329529 20.94644165 C297.39882968 21.75758702 297.40436408 22.56873239 297.41006619 23.40445793 C297.42359836 26.10219207 297.40874452 28.79898904 297.39379883 31.4967041 C297.39758465 33.4388671 297.40308686 35.38102739 297.41017151 37.32318115 C297.42410708 42.58338844 297.41297039 47.84326796 297.39646029 53.10345697 C297.38258938 58.61262411 297.38907205 64.12177262 297.39259338 69.63095093 C297.39529343 78.87954988 297.38183595 88.12801888 297.35864258 97.37658691 C297.33201846 108.06716023 297.33029153 118.75751653 297.34203094 129.44811165 C297.35281079 139.73814997 297.34662102 150.02810985 297.33247566 160.31814194 C297.32671926 164.69520804 297.3267958 169.07221666 297.33154106 173.4492836 C297.33631424 178.60233324 297.32619488 183.75514527 297.30458641 188.90814972 C297.29902363 190.79877038 297.29854857 192.6894139 297.30353928 194.58003616 C297.30949876 197.16141909 297.29697453 199.74207712 297.2797699 202.32339478 C297.28878497 203.44460541 297.28878497 203.44460541 297.29798216 204.58846676 C297.24095001 209.29652383 296.37669866 212.50899584 293.89208984 216.50793457 C289.80204798 220.19894796 287.42807731 221.63141115 281.97754288 221.64215565 C280.9322423 221.64661349 279.88694172 221.65107134 278.80996537 221.65566427 C277.07391624 221.65538772 277.07391624 221.65538772 275.30279541 221.65510559 C273.46898367 221.66062062 273.46898367 221.66062062 271.59812522 221.66624707 C268.19374195 221.67538636 264.78940693 221.67998632 261.38501596 221.68263638 C257.71754612 221.6865349 254.0500903 221.69611355 250.38262939 221.70484924 C241.52017981 221.72462666 232.65772907 221.73468156 223.79526293 221.74357703 C219.62396267 221.74795791 215.45266369 221.75332525 211.28136444 221.7585659 C197.41866952 221.77557959 183.5559754 221.79007433 169.69327164 221.79731464 C166.0945053 221.79922461 162.49573897 221.80114493 158.89697266 221.80310059 C158.00249309 221.80358433 157.10801352 221.80406807 156.18642852 221.80456647 C141.69261724 221.81286885 127.19888845 221.83820864 112.7051132 221.87068126 C97.83179603 221.90373312 82.95852079 221.92176171 68.08516669 221.92495888 C59.7314313 221.92712574 51.37781617 221.93589997 43.02411652 221.96142006 C35.91041574 221.98310152 28.79686442 221.99119013 21.68313435 221.98145328 C18.05298261 221.97690107 14.42313942 221.9788477 10.79302979 221.99821472 C6.85833055 222.01902562 2.92405893 222.00888507 -1.01068115 221.99568176 C-2.15912435 222.00665101 -3.30756755 222.01762025 -4.49081206 222.0289219 C-10.67755492 221.9786366 -14.41663739 221.68418253 -19.10791016 217.50793457 C-23.1709905 212.88442936 -23.25652521 208.60726199 -23.25508118 202.68415833 C-23.25875786 201.87869621 -23.26243455 201.07323409 -23.26622266 200.24336404 C-23.27726596 197.53507971 -23.28110444 194.82683375 -23.28491211 192.11853027 C-23.2911763 190.18035256 -23.29782306 188.24217605 -23.30482483 186.30400085 C-23.32223915 181.03108642 -23.3327879 175.75818106 -23.34103036 170.48524499 C-23.34617988 167.19108628 -23.35225566 163.89693039 -23.35854149 160.60277367 C-23.37759527 150.29673758 -23.39182569 139.99070867 -23.40015346 129.68465835 C-23.40992583 117.78708779 -23.43624468 105.88970329 -23.47665435 93.99219829 C-23.50681352 84.7971828 -23.52162217 75.60222064 -23.52493447 66.40715665 C-23.52728527 60.91497783 -23.53624968 55.42299773 -23.56139565 49.93087196 C-23.58467762 44.76228498 -23.58890899 39.59402752 -23.57863426 34.42540169 C-23.57813882 32.53076837 -23.5844618 30.63611883 -23.59819031 28.74153519 C-23.61591818 26.14950649 -23.60879903 23.55865929 -23.59565735 20.96662903 C-23.60662659 20.22157036 -23.61759584 19.47651168 -23.62889749 18.70887548 C-23.56268588 13.27830934 -22.36784803 8.92054519 -19.10791016 4.50793457 C-13.20496465 -0.35966488 -7.42024438 -0.05836885 0 0 Z " fill="#FBB035" transform="translate(119.10791015625,290.4920654296875)"/>
<path d="M0 0 C1.03970814 -0.00445784 2.07941627 -0.00891569 3.15063071 -0.01350862 C4.29661994 -0.01332426 5.44260917 -0.01313989 6.62332535 -0.01294994 C8.44510972 -0.01846498 8.44510972 -0.01846498 10.30369782 -0.02409142 C13.68108809 -0.03322082 17.05842975 -0.03782851 20.43582773 -0.04048073 C24.07603238 -0.0443832 27.71622295 -0.05396153 31.35641861 -0.0626936 C40.15023126 -0.082459 48.94404507 -0.09252403 57.73787439 -0.10142139 C61.87816148 -0.10580391 66.01844729 -0.11117079 70.15873337 -0.11641026 C83.92024215 -0.13342213 97.68175014 -0.14791681 111.44326782 -0.155159 C115.01470058 -0.15706891 118.58613334 -0.15898924 122.15756607 -0.16094494 C123.48907186 -0.16167055 123.48907186 -0.16167055 124.84747675 -0.16241082 C139.23061824 -0.17071304 153.61367661 -0.19605337 167.9967818 -0.22852562 C182.76052426 -0.26158575 197.52422448 -0.27960678 212.28800416 -0.28280324 C220.57859975 -0.28496924 228.8690741 -0.29373108 237.15963364 -0.31926441 C244.21948313 -0.3409571 251.27918195 -0.34902891 258.33906099 -0.33929763 C261.9409908 -0.3347488 265.54260964 -0.33667256 269.14449692 -0.35605907 C273.05032965 -0.37689994 276.95573262 -0.36671865 280.8616066 -0.35352612 C282.56720611 -0.36997998 282.56720611 -0.36997998 284.30726218 -0.38676625 C290.76126372 -0.33402934 294.71512536 0.3401882 299.99643326 4.13422108 C299.42257366 7.38521666 298.55716504 8.91856379 296.11752701 11.12250233 C295.23641251 11.92917347 295.23641251 11.92917347 294.33749771 12.752141 C293.39523331 13.59095814 293.39523331 13.59095814 292.43393326 14.44672108 C291.79351089 15.0284911 291.15308853 15.61026112 290.49325943 16.20966053 C286.69596548 19.64892803 282.86346425 23.04875322 278.98471451 26.39593983 C276.45590398 28.60678597 273.97770762 30.87018551 271.49643326 33.13422108 C267.707092 36.58997521 263.88559628 39.99944997 260.01596451 43.36468983 C255.96978237 46.90999062 251.98900139 50.52881107 247.99643326 54.13422108 C238.50771284 62.70282315 238.50771284 62.70282315 234.05893326 66.57172108 C229.86340104 70.22480064 225.76269772 73.97927656 221.65268326 77.72797108 C218.82920657 80.28570878 215.96587324 82.79192077 213.09018326 85.29047108 C210.53224299 87.54298564 208.01464346 89.83739199 205.49643326 92.13422108 C201.73292805 95.56686869 197.93513975 98.94977117 194.09018326 102.29047108 C191.53224299 104.54298564 189.01464346 106.83739199 186.49643326 109.13422108 C182.04248648 113.19103954 177.56291276 117.20473238 172.99643326 121.13422108 C172.05799576 121.96308826 171.11955826 122.79195545 170.15268326 123.64593983 C160.82389583 131.78758953 154.10889071 135.87546966 141.36362076 135.45062733 C128.57896458 134.24928493 120.89436734 126.18589657 111.87924576 117.80218983 C108.95937192 115.09992177 105.98515128 112.4756706 102.98080826 109.86859608 C98.07108606 105.57742155 93.25768508 101.1762 88.41830826 96.80609608 C84.65342476 93.4107717 80.88449775 90.02363765 77.05893326 86.69672108 C72.86340104 83.04364151 68.76269772 79.28916559 64.65268326 75.54047108 C62.45290585 73.54773154 60.23688108 71.58083967 57.99643326 69.63422108 C53.81914243 66.00477167 49.74106087 62.26943087 45.65268326 58.54047108 C43.45290585 56.54773154 41.23688108 54.58083967 38.99643326 52.63422108 C34.81914243 49.00477167 30.74106087 45.26943087 26.65268326 41.54047108 C24.45290585 39.54773154 22.23688108 37.58083967 19.99643326 35.63422108 C16.78744081 32.8460801 13.63726882 29.99893923 10.49643326 27.13422108 C6.72004309 23.69027791 2.91265067 20.29127176 -0.94497299 16.93890858 C-5.00340573 13.38104154 -8.99931698 9.75281563 -13.00356674 6.13422108 C-8.66975656 1.56615088 -6.26474573 0.01244551 0 0 Z " fill="#FED05A" transform="translate(112.00356674194336,290.86577892303467)"/>
<path d="M0 0 C2.88915055 1.31389339 5.00516655 2.74070865 7.28515625 4.94140625 C7.89262695 5.52075928 8.50009766 6.1001123 9.12597656 6.69702148 C10.08455566 7.62043335 10.08455566 7.62043335 11.0625 8.5625 C29.14247722 25.67375082 45.77839418 37.58715638 71.41796875 37.2109375 C91.34408925 36.54877719 105.26575438 24.50668935 119.1640625 11.625 C121.59323629 9.37650855 124.03011503 7.14111485 126.5 4.9375 C127.0878125 4.41027344 127.675625 3.88304687 128.28125 3.33984375 C130.09580328 1.92531699 131.91279864 0.95663396 134 0 C138.57685682 4.46986536 142.9785999 9.01841901 147.15234375 13.8671875 C149.2371655 16.27376821 151.36521533 18.63764945 153.5 21 C156.76390848 24.61676345 159.98790949 28.26389608 163.1875 31.9375 C165.27211164 34.30964429 167.38428644 36.65556065 169.5 39 C172.76390848 42.61676345 175.98790949 46.26389608 179.1875 49.9375 C181.27211164 52.30964429 183.38428644 54.65556065 185.5 57 C188.76390848 60.61676345 191.98790949 64.26389608 195.1875 67.9375 C197.27211164 70.30964429 199.38428644 72.65556065 201.5 75 C217 92.18994889 217 92.18994889 217 95 C118 95 19 95 -83 95 C-81.39254041 91.78508083 -80.25436423 89.94929359 -77.9375 87.375 C-77.31746094 86.68148437 -76.69742188 85.98796875 -76.05859375 85.2734375 C-75.37925781 84.52320313 -74.69992188 83.77296875 -74 83 C-73.26910156 82.18789063 -72.53820312 81.37578125 -71.78515625 80.5390625 C-70.25375483 78.83750537 -68.72119015 77.13699449 -67.1875 75.4375 C-65.27445851 73.30582519 -63.38112388 71.1598089 -61.5 69 C-58.10746907 65.10487189 -54.64805799 61.27217237 -51.1875 57.4375 C-49.27445851 55.30582519 -47.38112388 53.1598089 -45.5 51 C-42.10746907 47.10487189 -38.64805799 43.27217237 -35.1875 39.4375 C-33.27445851 37.30582519 -31.38112388 35.1598089 -29.5 33 C-26.10746907 29.10487189 -22.64805799 25.27217237 -19.1875 21.4375 C-17.27445851 19.30582519 -15.38112388 17.1598089 -13.5 15 C-3.35714286 3.35714286 -3.35714286 3.35714286 0 0 Z " fill="#FEC243" transform="translate(189,417)"/>
<path d="M0 0 C15.86224285 12.49483934 27.31971106 29.48535445 29.796875 49.828125 C31.17208012 71.58929332 26.72749209 90.93391074 13.046875 108.265625 C1.66560469 121.0695541 -13.34837174 129.7434337 -30.203125 132.828125 C-30.90824219 132.95832031 -31.61335938 133.08851563 -32.33984375 133.22265625 C-52.38552035 136.27220137 -71.96328597 130.64977253 -88.203125 118.828125 C-103.22580233 107.08600221 -112.67055609 91.53481238 -116.203125 72.828125 C-116.60807378 68.71245627 -116.68188928 64.64914561 -116.640625 60.515625 C-116.63160156 59.42330566 -116.62257813 58.33098633 -116.61328125 57.20556641 C-116.20974586 38.29264756 -109.33912106 21.86726093 -95.98046875 8.4765625 C-69.38477565 -16.88473135 -30.73266015 -20.83824273 0 0 Z " fill="#D8EBFD" transform="translate(116.203125,77.171875)"/>
<path d="M0 0 C1.56011827 1.332867 3.10283854 2.68644479 4.625 4.0625 C5.33269531 4.68898438 6.04039062 5.31546875 6.76953125 5.9609375 C19.28494729 17.68666189 27.32892695 35.07469905 28.05859375 52.2109375 C28.08208251 54.28632583 28.08298165 56.36207982 28.0625 58.4375 C28.05420166 59.53167236 28.04590332 60.62584473 28.03735352 61.75317383 C27.62334733 81.6063172 19.17094634 97.99666114 5.54296875 112.23828125 C-7.92366118 125.10528387 -26.10074531 131.73357952 -44.5625 132.375 C-62.66619382 131.93153776 -78.20705537 126.4710577 -92.375 115.0625 C-93.00792969 114.59328125 -93.64085937 114.1240625 -94.29296875 113.640625 C-106.53487645 104.11602862 -114.97675489 87.80600484 -117.9375 72.76171875 C-120.55494956 50.63024795 -117.07840307 30.04962745 -103 12.1875 C-96.0807633 4.21457243 -88.69792604 -1.97279506 -79.375 -6.9375 C-78.53324219 -7.39125 -77.69148438 -7.845 -76.82421875 -8.3125 C-52.24988407 -20.54505771 -21.48418827 -16.64452334 0 0 Z " fill="#D7EBFD" transform="translate(484.375,78.9375)"/>
<path d="M0 0 C2.20655549 1.69169254 4.33944138 3.44712399 6.46875 5.234375 C7.45875 5.95625 8.44875 6.678125 9.46875 7.421875 C20.92743956 17.23000539 29.6667095 34.35145122 31.46875 49.234375 C32.97893971 70.86784265 29.63932298 91.05880109 15.328125 108.15625 C14.40773438 109.18492188 14.40773438 109.18492188 13.46875 110.234375 C12.81390625 110.98203125 12.1590625 111.7296875 11.484375 112.5 C2.40460499 122.24252695 -8.94061069 128.21643196 -21.53125 132.234375 C-22.68753906 132.60369141 -22.68753906 132.60369141 -23.8671875 132.98046875 C-43.5767333 137.99430058 -64.38043228 133.40021057 -81.53125 123.234375 C-84.74780469 121.10476005 -87.65786121 118.80530182 -90.53125 116.234375 C-91.65273437 115.25210938 -91.65273437 115.25210938 -92.796875 114.25 C-105.69515072 102.229158 -114.12891432 84.54498614 -114.8671875 66.8515625 C-115.22145434 44.57896027 -109.84303391 25.86455519 -94.5703125 9.2421875 C-70.32987972 -15.56972896 -28.59240334 -19.94408381 0 0 Z " fill="#D8EBFD" transform="translate(297.53125,11.765625)"/>
<path d="M0 0 C0.33 0 0.66 0 1 0 C0.94650391 0.86052979 0.89300781 1.72105957 0.83789062 2.60766602 C-0.68443831 20.31122002 -0.68443831 20.31122002 5.34765625 36.15234375 C8.56512531 39.36331364 12.09290447 42.02263625 15.875 44.53271484 C19.51323242 47.04486752 22.72810285 50.03586219 26 53 C26.86367187 53.77085937 27.72734375 54.54171875 28.6171875 55.3359375 C29.73480469 56.34527344 29.73480469 56.34527344 30.875 57.375 C31.71546875 58.13296875 32.5559375 58.8909375 33.421875 59.671875 C35.140625 61.22395833 36.859375 62.77604167 38.578125 64.328125 C42.3430085 67.72344938 46.11193551 71.11058342 49.9375 74.4375 C53.16559512 77.24822525 56.33738443 80.115799 59.5 83 C63.29952858 86.46458391 67.12725718 89.88837295 71.0078125 93.26171875 C74.69632451 96.48012629 78.34549531 99.74309189 82 103 C77.44278977 109.45604783 72.27445851 115.13527589 66.890625 120.89453125 C64.09401372 123.88640143 61.38667691 126.94605466 58.70703125 130.04296875 C56.66366569 132.3855915 54.58319141 134.69273422 52.5 137 C49.81016569 139.98062721 47.13689636 142.97245233 44.5 146 C41.10746907 149.89512811 37.64805799 153.72782763 34.1875 157.5625 C32.27445851 159.69417481 30.38112388 161.8401911 28.5 164 C25.86310364 167.02754767 23.18983431 170.01937279 20.5 173 C17.79080809 176.0025731 15.0967312 179.01559045 12.4375 182.0625 C11.88707031 182.69285156 11.33664063 183.32320312 10.76953125 183.97265625 C9.45388019 185.47999158 8.13887834 186.98789361 6.82421875 188.49609375 C5.73560547 189.73552734 5.73560547 189.73552734 4.625 191 C3.95726563 191.763125 3.28953125 192.52625 2.6015625 193.3125 C2.07304688 193.869375 1.54453125 194.42625 1 195 C0.67 195 0.34 195 0 195 C0 130.65 0 66.3 0 0 Z " fill="#FEC243" transform="translate(96,303)"/>
<path d="M0 0 C0.33 0 0.66 0 1 0 C1 64.35 1 128.7 1 195 C-5.72202166 189.39831528 -5.72202166 189.39831528 -8.3125 186.3125 C-10.99736836 183.16533642 -13.72443603 180.0677286 -16.5 177 C-19.17048344 174.04130249 -21.82298058 171.07073528 -24.4375 168.0625 C-27.24822525 164.83440488 -30.115799 161.66261557 -33 158.5 C-36.45328153 154.71337002 -39.86099051 150.8952368 -43.22265625 147.02734375 C-45.29359487 144.66510827 -47.39512848 142.33204147 -49.5 140 C-52.76390848 136.38323655 -55.98790949 132.73610392 -59.1875 129.0625 C-61.27211164 126.69035571 -63.38428644 124.34443935 -65.5 122 C-67.00028239 120.33358753 -68.50029332 118.66693061 -70 117 C-70.65613281 116.27296875 -71.31226563 115.5459375 -71.98828125 114.796875 C-72.59027344 114.12140625 -73.19226563 113.4459375 -73.8125 112.75 C-74.33457031 112.16734375 -74.85664063 111.5846875 -75.39453125 110.984375 C-77.4522265 108.44104365 -79.21594755 105.73993304 -81 103 C-65.90649855 88.82331085 -65.90649855 88.82331085 -59.87890625 83.62890625 C-55.86423831 80.1484145 -51.94326906 76.56089146 -48 73 C-38.51127959 64.43139793 -38.51127959 64.43139793 -34.0625 60.5625 C-30.83440488 57.75177475 -27.66261557 54.884201 -24.5 52 C-21.33738443 49.115799 -18.16559512 46.24822525 -14.9375 43.4375 C-14.35468262 42.91212646 -13.77186523 42.38675293 -13.17138672 41.84545898 C-11 40 -11 40 -8.4675293 38.26025391 C-4.17261301 35.05741341 -1.41713895 32.67836157 -0.09643555 27.36450195 C0.32196464 23.22006943 0.235108 19.09550083 0.125 14.9375 C0.1230545 13.48502501 0.12562292 12.03253662 0.1328125 10.58007812 C0.1405741 7.05171249 0.08730193 3.52744422 0 0 Z " fill="#FEC243" transform="translate(415,303)"/>
<path d="M0 0 C1.5703125 1.48828125 1.5703125 1.48828125 3.125 3.3125 C9.12569806 9.4781221 15.57903226 11.2166083 24.0625 11.5 C33.59703525 11.18976566 40.40881875 7.8658138 47 1 C47.33 0.34 47.66 -0.32 48 -1 C61.89378057 0.64180568 74.32269782 12.18375831 82.75 22.75 C83.1929541 23.29285645 83.6359082 23.83571289 84.09228516 24.39501953 C85.99154769 26.90093747 87.01289179 28.45451604 86.9375 31.64453125 C85.34039838 35.65724907 82.68796473 38.66321619 80 42 C78.948125 43.4540625 78.948125 43.4540625 77.875 44.9375 C67.81025715 56.69567578 51.94239663 64.26530076 37 67 C36.29488281 67.13019531 35.58976562 67.26039063 34.86328125 67.39453125 C14.81760465 70.44407637 -4.76016097 64.82164753 -21 53 C-28.75032596 46.9421398 -34.39750871 39.9977593 -40 32 C-35.18579306 21.73813784 -13.97603774 -5.59592832 0 0 Z " fill="#80D261" transform="translate(49,143)"/>
<path d="M0 0 C1.45703125 1.390625 1.45703125 1.390625 2.8125 3.25 C6.58518809 7.96824789 10.97466092 10.85689489 17 12 C26.81221182 12.75383491 35.64882912 12.58172148 43.390625 5.953125 C45.3433275 4.02773302 47.20183183 2.06940024 49 0 C65.28790234 4.53925147 78.09983665 15.82480511 87 30 C87.495 31.485 87.495 31.485 88 33 C86.64418265 35.19977557 85.29090818 37.1172717 83.6875 39.125 C83.22891602 39.70467529 82.77033203 40.28435059 82.29785156 40.8815918 C68.95869876 57.3637996 51.04929423 66.71448682 30 69 C10.4394273 70.67410307 -7.86793676 64.18490198 -23 52 C-23.63292969 51.53078125 -24.26585937 51.0615625 -24.91796875 50.578125 C-30.55118747 46.19530036 -35.52134418 40.21307999 -39 34 C-38.78549956 25.57139459 -29.43512803 17.9460001 -23.828125 12.43359375 C-18.97055172 8.25366536 -13.6020265 5.0970553 -8 2 C-6.94425781 1.39671875 -6.94425781 1.39671875 -5.8671875 0.78125 C-4 0 -4 0 0 0 Z " fill="#60B7FE" transform="translate(415,142)"/>
<path d="M0 0 C0.639375 0.70125 1.27875 1.4025 1.9375 2.125 C8.37892132 8.56642132 15.95985285 13.26260479 25.1875 13.375 C37.09528931 13.17294475 43.89501217 8.13947714 52 0 C60.89185934 4.09999278 68.67281496 8.37489715 76 15 C77.07894531 15.95712891 77.07894531 15.95712891 78.1796875 16.93359375 C83.24843754 21.68674237 86.70308936 26.90571063 90 33 C78.61686762 49.72493752 65.46638237 60.78785989 46 67 C45.22914063 67.24621094 44.45828125 67.49242187 43.6640625 67.74609375 C23.9545167 72.75992558 3.15081772 68.16583557 -14 58 C-17.21648431 55.87043164 -20.12975999 53.57461604 -23 51 C-23.77085937 50.31035156 -24.54171875 49.62070313 -25.3359375 48.91015625 C-30.70505222 43.83536177 -34.5333544 38.51185586 -38 32 C-27.61721949 17.57947151 -16.74879677 6.76352685 0 0 Z " fill="#EF7281" transform="translate(230,77)"/>
<path d="M0 0 C6.57711543 4.5578256 11.45511036 10.36533108 14 18 C14.75410439 27.49094245 15.07076032 36.10801158 9 44 C3.10931516 50.52902902 -2.47599904 54.47736997 -11.26171875 55.30859375 C-21.71473106 55.68151203 -29.09639615 54.02119703 -36.875 46.875 C-43.45436652 39.73667845 -45.75410781 32.5527732 -45.3828125 22.88671875 C-44.30129238 14.73117419 -39.51869771 6.5607338 -33.046875 1.4609375 C-22.49803629 -5.42399158 -11.11128773 -6.25702083 0 0 Z " fill="#FDD2A4" transform="translate(88,100)"/>
<path d="M0 0 C7.96626629 -0.54250559 15.3511723 2.5389217 21.77734375 7.125 C28.57705427 13.23225252 32.07833177 20.81987198 32.6171875 29.8515625 C32.45585391 38.50979853 28.59721179 45.84323378 22.8671875 52.2265625 C15.66195993 58.64690689 7.81269188 59.87171293 -1.62109375 59.53515625 C-10.38681858 58.7058242 -15.99465759 54.74062364 -21.8828125 48.2265625 C-27.20786957 40.00490845 -27.71667701 31.72495014 -26.8828125 22.2265625 C-24.62063497 14.52704345 -19.62491466 8.18924728 -12.83203125 3.9453125 C-8.56438674 1.69495381 -4.77636881 0.57474977 0 0 Z " fill="#FDD2A4" transform="translate(436.8828125,95.7734375)"/>
<path d="M0 0 C6.90242135 3.92057533 12.67622825 9.29482184 15.125 17.0390625 C17.0059577 27.61944956 16.13481683 36.47006288 10.3125 45.421875 C5.8442096 51.36267019 -0.51800657 54.19350219 -7.4375 56.5 C-17.1243445 57.60109455 -24.35469445 55.99387685 -32.4375 50.5 C-34.92989075 48.3937543 -36.71082096 46.26154297 -38.4375 43.5 C-38.84742188 42.86707031 -39.25734375 42.23414063 -39.6796875 41.58203125 C-43.75288818 34.09576931 -43.46174143 25.26135807 -42 17.0390625 C-39.55122825 9.29482184 -33.77742135 3.92057533 -26.875 0 C-17.79894461 -4.12444964 -9.07605539 -4.12444964 0 0 Z " fill="#FDD1A4" transform="translate(269.4375,34.5)"/>
<path d="M0 0 C6.10437198 2.00299706 9.0450729 6.15382172 13 11 C13.82177734 11.97646484 13.82177734 11.97646484 14.66015625 12.97265625 C16.5902774 15.41891008 17.94485898 17.28316672 18.1875 20.4375 C16.35115401 24.40014135 13.7287283 27.61261315 11 31 C9.948125 32.4540625 9.948125 32.4540625 8.875 33.9375 C-1.18974285 45.69567578 -17.05760337 53.26530076 -32 56 C-32.70511719 56.13019531 -33.41023438 56.26039063 -34.13671875 56.39453125 C-54.13513697 59.43688696 -73.81968606 53.85768992 -90 42 C-95.17613382 37.75104389 -100.03893018 33.43180873 -104 28 C-104 27.34 -104 26.68 -104 26 C-101.0284477 27.11433211 -98.23601992 28.39102493 -95.4375 29.875 C-78.00739786 38.72259937 -58.71455716 39.22484809 -40.18164062 33.72314453 C-23.98652035 28.35497687 -8.89983849 17.02066295 -0.7890625 1.71484375 C-0.52867188 1.14894531 -0.26828125 0.58304688 0 0 Z " fill="#68CA45" transform="translate(118,154)"/>
<path d="M0 0 C8.20710406 3.38705882 13.73764886 12.57525931 18 20 C7.3266793 37.32845008 -7.37492337 49.5651974 -27.25 54.75 C-46.04258148 59.0199447 -64.91786062 57.21400246 -82 48 C-85.85313763 45.54086375 -89.44596666 42.87101064 -93 40 C-93.66773438 39.484375 -94.33546875 38.96875 -95.0234375 38.4375 C-99.48014098 34.85656795 -102.75313193 30.68595611 -106 26 C-101.91695354 26 -99.1323796 27.92918876 -95.625 29.8125 C-79.75225463 37.96206736 -61.34709903 39.61228751 -44 35 C-34.48581704 31.73649708 -25.88754672 27.26883378 -18 21 C-17.3915625 20.55398437 -16.783125 20.10796875 -16.15625 19.6484375 C-9.44880325 14.43492207 -4.66916393 7.00374589 0 0 Z " fill="#27A6FE" transform="translate(485,154)"/>
<path d="M0 0 C5.83350673 0.85786864 9.33845984 5.737689 13 10 C15.2002396 13.23538288 17.16192006 16.54729297 19 20 C7.61686762 36.72493752 -5.53361763 47.78785989 -25 54 C-25.77085937 54.24621094 -26.54171875 54.49242187 -27.3359375 54.74609375 C-47.0454833 59.75992558 -67.84918228 55.16583557 -85 45 C-92.41167841 40.09287959 -101.41170541 33.32258903 -105 25 C-100.13629212 26.87203489 -95.51132126 29.1615049 -90.83984375 31.46484375 C-81.7975579 35.36735679 -72.52016577 36.55967682 -62.75 36.5 C-61.66315918 36.49500488 -60.57631836 36.49000977 -59.45654297 36.48486328 C-40.56301453 36.07858097 -24.11992868 28.13943733 -10.7734375 14.76953125 C-6.54047257 10.16400199 -3.14319364 5.40236407 0 0 Z " fill="#EB5569" transform="translate(301,90)"/>
<path d="M0 0 C3.03173088 1.93184712 5.44841226 4.48435011 8 7 C9.19546289 8.11321723 10.39218019 9.22508822 11.58984375 10.3359375 C12.87395762 11.55564953 14.15649853 12.77701959 15.4375 14 C16.06527344 14.58088379 16.69304687 15.16176758 17.33984375 15.76025391 C20.43356536 18.78189044 21.86109739 20.48207631 23.0078125 24.7578125 C23 28 23 28 21.4375 30.875 C18.48097805 33.45248068 16.91032112 34 13 34 C10.12127423 32.6260627 8.25010563 31.25010563 6 29 C5.99589111 30.27641357 5.99178223 31.55282715 5.98754883 32.86791992 C5.96574921 37.61132994 5.91145054 42.35391145 5.84741211 47.09692383 C5.82423941 49.14827524 5.80983811 51.1997455 5.80444336 53.2512207 C5.79514857 56.2033895 5.75414636 59.15369086 5.70703125 62.10546875 C5.71293022 63.47761787 5.71293022 63.47761787 5.71894836 64.87748718 C5.61588204 69.39256369 5.46342397 71.3944715 2.64331055 75.0793457 C0 77 0 77 -3 77.625 C-7.15993704 76.75834645 -8.41942736 75.37188053 -11 72 C-11.73925262 68.70370334 -11.72151062 65.47348846 -11.70703125 62.10546875 C-11.72215256 61.15811356 -11.73727386 60.21075836 -11.75285339 59.23469543 C-11.79572747 56.21872144 -11.8045682 53.20374837 -11.8125 50.1875 C-11.8356445 48.13864527 -11.86100974 46.08981434 -11.88867188 44.04101562 C-11.95152159 39.02725528 -11.98385911 34.0141195 -12 29 C-12.59941406 29.64066406 -13.19882813 30.28132813 -13.81640625 30.94140625 C-16.58865569 33.55495805 -18.21618816 33.92277935 -22 34 C-25.52906067 32.39588152 -26.82772908 31.25840638 -29 28 C-28.83489189 22.4218486 -27.56419167 19.82188415 -23.59765625 15.9765625 C-22.70755859 15.10128906 -21.81746094 14.22601563 -20.90039062 13.32421875 C-19.96388672 12.43347656 -19.02738281 11.54273438 -18.0625 10.625 C-17.12986328 9.71105469 -16.19722656 8.79710937 -15.23632812 7.85546875 C-6.21835932 -0.92123842 -6.21835932 -0.92123842 0 0 Z " fill="#796C78" transform="translate(259,171)"/>
<path d="M0 0 C0.69512695 -0.0038269 1.39025391 -0.00765381 2.10644531 -0.01159668 C3.57228041 -0.0143118 5.03816428 -0.00697835 6.50390625 0.00976562 C8.74328975 0.03118581 10.97946587 0.00995557 13.21875 -0.015625 C14.64584039 -0.01298165 16.07292879 -0.0078565 17.5 0 C19.44132812 0.00676758 19.44132812 0.00676758 21.421875 0.01367188 C24.75 0.53125 24.75 0.53125 27.16772461 2.09765625 C29.28892429 5.36013401 29.34357379 8.22798737 29.31640625 12 C29.32570412 13.0759845 29.32570412 13.0759845 29.33518982 14.17370605 C29.34227697 15.68659104 29.33913308 17.1995542 29.32641602 18.71240234 C29.31254007 21.02457326 29.34663692 23.33270158 29.38476562 25.64453125 C29.38571682 27.11718849 29.38385795 28.58985078 29.37890625 30.0625 C29.39216446 30.75114136 29.40542267 31.43978271 29.41908264 32.14929199 C29.34814478 35.81400642 28.97574026 37.29009182 26.43725586 40.00195312 C23.75 41.53125 23.75 41.53125 20.125 41.46875 C15.35043197 40.1424811 15.35043197 40.1424811 13.75 37.53125 C12.99446535 34.88404588 12.3893164 32.2099048 11.75 29.53125 C10.90816162 30.40450928 10.06632324 31.27776855 9.19897461 32.17749023 C6.06289834 35.42240675 2.90680852 38.64722812 -0.25561523 41.86645508 C-1.61985796 43.2608164 -2.9786604 44.66052266 -4.33178711 46.06567383 C-6.2812349 48.08814537 -8.24963605 50.09039434 -10.22265625 52.08984375 C-10.82086685 52.71902206 -11.41907745 53.34820038 -12.03541565 53.9964447 C-15.91997162 57.88403551 -18.52458388 59.41306981 -24.25 59.53125 C-26.5625 59.03125 -26.5625 59.03125 -28.25 57.53125 C-29.92742043 53.73882121 -30.67287513 51.6414769 -29.17260742 47.70263672 C-26.8782858 43.91809857 -24.20711109 41.11041327 -21.05078125 38.0390625 C-20.15820869 37.15285721 -20.15820869 37.15285721 -19.24760437 36.24874878 C-17.35953904 34.37737471 -15.46127711 32.51674822 -13.5625 30.65625 C-12.27470089 29.38351002 -10.98758398 28.11007937 -9.70117188 26.8359375 C-6.55861917 23.72632722 -3.40688322 20.62630815 -0.25 17.53125 C-1.52875 17.22445312 -2.8075 16.91765625 -4.125 16.6015625 C-6.42964253 16.04863415 -8.17694894 15.57234122 -10.25 14.40625 C-11.90886873 11.29587114 -12.07187931 7.90289663 -11.25 4.53125 C-7.95665759 0.16067938 -5.32207727 0.01855306 0 0 Z " fill="#796D78" transform="translate(314.25,203.46875)"/>
<path d="M0 0 C1.04269043 -0.00574036 1.04269043 -0.00574036 2.10644531 -0.01159668 C3.57228041 -0.0143118 5.03816428 -0.00697835 6.50390625 0.00976562 C8.74328975 0.03118581 10.97946587 0.00995557 13.21875 -0.015625 C14.64584039 -0.01298165 16.07292879 -0.0078565 17.5 0 C19.44132812 0.00676758 19.44132812 0.00676758 21.421875 0.01367188 C25.25989809 0.61054753 26.43853753 1.47545453 28.75 4.53125 C29.53256292 7.29450664 29.40859723 9.7422339 28.75 12.53125 C25.44995492 16.31659582 22.57118217 16.84346362 17.75 17.53125 C18.58772949 18.34279541 19.42545898 19.15434082 20.28857422 19.99047852 C23.406169 23.01727589 26.5069431 26.06083513 29.60302734 29.10961914 C30.94292765 30.42444283 32.28729022 31.73473567 33.63623047 33.0402832 C35.57942963 34.92253332 37.50576297 36.82073294 39.4296875 38.72265625 C40.03183075 39.29899307 40.633974 39.8753299 41.25436401 40.46913147 C45.08689154 44.29907638 46.81438851 47.15774016 47.75 52.53125 C47.0756264 55.56593121 46.46700535 56.94702342 44.0625 58.90625 C40.56531847 59.8514342 38.27502707 59.4059865 34.75 58.53125 C32.09797861 56.67806325 29.94682924 54.42915604 27.72265625 52.08984375 C27.08887558 51.44757339 26.45509491 50.80530304 25.80210876 50.14356995 C23.79099189 48.09900046 21.80179834 46.03453207 19.8125 43.96875 C18.44866297 42.57480334 17.08344249 41.18220882 15.71679688 39.79101562 C12.37830437 36.38654654 9.05931291 32.96408019 5.75 29.53125 C5.55374023 30.15628418 5.35748047 30.78131836 5.15527344 31.42529297 C4.89262695 32.24143066 4.62998047 33.05756836 4.359375 33.8984375 C4.10124023 34.70909668 3.84310547 35.51975586 3.57714844 36.35498047 C2.75 38.53125 2.75 38.53125 1 40.65625 C-2.386511 41.9732265 -4.77896943 41.41478505 -8.25 40.53125 C-9.93774414 39.43725586 -9.93774414 39.43725586 -11.25 37.53125 C-11.56038354 34.99135621 -11.69434424 32.70090364 -11.68359375 30.16015625 C-11.6888356 29.4414183 -11.69407745 28.72268036 -11.69947815 27.98216248 C-11.70589606 26.46330048 -11.70456425 24.94438877 -11.69604492 23.42553711 C-11.68754142 21.10505314 -11.716283 18.78703714 -11.74804688 16.46679688 C-11.74965924 14.98958407 -11.74908069 13.51236692 -11.74609375 12.03515625 C-11.75732773 11.34337784 -11.76856171 10.65159943 -11.78013611 9.93885803 C-11.73426835 6.75729031 -11.4142611 4.78482155 -9.67211914 2.09545898 C-6.34364018 -0.05407884 -3.94759971 0.01376155 0 0 Z " fill="#796D78" transform="translate(180.25,203.46875)"/>
<path d="M0 0 C11.06504427 3.82873504 17.87786643 15.80417399 23.1875 25.625 C31.35049423 42.84826129 32.83538227 62.42157986 27.22265625 80.66796875 C25.41892846 85.58355918 23.36857025 90.33081029 21 95 C20.443125 94.30132812 19.88625 93.60265625 19.3125 92.8828125 C16.89229021 89.86572664 14.45773889 86.86152514 12 83.875 C11.57460937 83.35035156 11.14921875 82.82570313 10.7109375 82.28515625 C8.36242187 79.43956216 6.06841589 77.05981622 3 75 C4.56486227 70.17500801 6.3133084 65.43063236 8.09765625 60.68359375 C10.2985917 54.13795457 10.21782417 47.77888685 10.25 40.9375 C10.270625 39.86822266 10.29125 38.79894531 10.3125 37.69726562 C10.36391268 27.06126782 8.35842146 17.74750821 3.3125 8.375 C0 2.20321932 0 2.20321932 0 0 Z " fill="#C4E2FE" transform="translate(116,79)"/>
<path d="M0 0 C16.75912316 11.76704392 27.14911995 27.8094323 31 48 C31.40633934 52.13635128 31.4778634 56.22079861 31.4375 60.375 C31.42722778 62.01190796 31.42722778 62.01190796 31.41674805 63.68188477 C31.17104061 76.05652099 28.08129495 86.18327046 22 97 C20.01271467 94.52801093 18.03840737 92.04996918 16.10546875 89.53515625 C12.10475405 84.37741204 8.11937417 80.05283788 3 76 C3.86625 74.9171875 3.86625 74.9171875 4.75 73.8125 C13.46719318 60.78324329 13.51630444 42.17578654 10.8125 27.3125 C8.7524218 18.0421481 5.50015027 9.74095223 0 2 C0 1.34 0 0.68 0 0 Z " fill="#C4E2FE" transform="translate(481,77)"/>
<path d="M0 0 C15.65040748 8.5365859 24.76622293 24.95191337 29.9375 41.5 C33.94976735 60.03165984 31.42529047 79.58299816 22 96 C19.41095911 93.6101161 17.30109006 91.09686817 15.25 88.25 C11.92857024 83.71922914 8.05623226 79.87092216 4 76 C4.40992188 74.98421875 4.81984375 73.9684375 5.2421875 72.921875 C13.69064694 51.53981042 13.94412635 32.36459162 5.2734375 10.79296875 C3.7987456 7.55859848 2.08905018 4.86277247 0 2 C0 1.34 0 0.68 0 0 Z " fill="#C4E2FE" transform="translate(298,13)"/>
</svg>
