<?xml version="1.0" encoding="UTF-8"?>
<svg version="1.1" xmlns="http://www.w3.org/2000/svg" width="512" height="512">
<path d="M0 0 C1.95215783 -0.00967334 1.95215783 -0.00967334 3.94375318 -0.0195421 C5.40178556 -0.01659935 6.85981756 -0.01346388 8.31784916 -0.01015663 C9.85599001 -0.01388986 11.39412896 -0.01849006 12.93226486 -0.02388728 C17.17476294 -0.03617318 21.41718249 -0.03585028 25.65969431 -0.03349853 C30.22896053 -0.03309177 34.7982011 -0.04411594 39.36745548 -0.05361366 C48.32514963 -0.07025494 57.28281747 -0.07572461 66.24052577 -0.07683842 C73.51829851 -0.07778736 80.79606253 -0.08188992 88.07383251 -0.08823967 C108.68772174 -0.10586016 129.30159011 -0.11507721 149.91548692 -0.11357872 C151.0277173 -0.11349881 152.13994767 -0.1134189 153.285882 -0.11333656 C154.39946337 -0.1132548 155.51304475 -0.11317304 156.66037101 -0.1130888 C174.71602812 -0.11227554 192.77160187 -0.1314212 210.82723486 -0.1596133 C229.34709186 -0.1883031 247.86690815 -0.20215577 266.38678795 -0.20042574 C276.79218314 -0.19976052 287.19749094 -0.20531073 297.60286617 -0.22678185 C306.46090276 -0.24494233 315.31881235 -0.2493834 324.17685943 -0.235763 C328.69975404 -0.22920742 333.22240466 -0.2292088 337.74527645 -0.2464695 C341.88119916 -0.26209171 346.01668223 -0.25944906 350.1525935 -0.24190123 C351.65325202 -0.2388072 353.15394247 -0.24255313 354.65456336 -0.25362138 C356.68572171 -0.26761711 358.7170129 -0.25483502 360.74816895 -0.24050903 C362.44446218 -0.24116114 362.44446218 -0.24116114 364.17502397 -0.24182642 C366.93700504 0.25726891 366.93700504 0.25726891 368.80021209 1.76636922 C370.43298098 5.34403346 370.3485194 8.75257553 370.31452847 12.60944176 C370.31888879 13.46379909 370.32324911 14.31815641 370.32774156 15.19840336 C370.33874936 18.08081413 370.32825011 20.9627517 370.31795597 23.84515953 C370.32141035 25.92466287 370.32617342 28.00416438 370.3321377 30.08366203 C370.34470756 35.81334485 370.33845017 41.54287854 370.32917905 47.27256203 C370.32241333 53.44577885 370.33285745 59.61896936 370.34111881 65.79218102 C370.35371167 77.19163953 370.35258679 88.59103699 370.34438441 99.99049401 C370.33684455 110.52058621 370.33486445 121.05066089 370.33845234 131.58075523 C370.33879607 132.62755021 370.33879607 132.62755021 370.33914675 133.69549257 C370.34008073 136.5281838 370.34103593 139.36087502 370.34202604 142.19356623 C370.35120778 168.7788392 370.34287515 195.36408173 370.32673535 221.94935 C370.31249801 245.58065177 370.31377187 269.21190505 370.32811832 292.84320641 C370.34417423 319.3791408 370.35055668 345.91504829 370.34128153 372.45098686 C370.34031935 375.27858543 370.33938083 378.106184 370.33845234 380.93378258 C370.33809649 381.9781608 370.33809649 381.9781608 370.33773345 383.04363757 C370.33431773 393.56838729 370.33831801 404.09311758 370.345891 414.61786461 C370.35445681 426.58222657 370.3520602 438.54653123 370.33604877 450.51089096 C370.32814411 456.61965119 370.32511173 462.72831279 370.33499622 468.83707237 C370.34389829 474.42300132 370.33908472 480.0087397 370.32306357 485.59465122 C370.31969665 487.6215054 370.32145233 489.64837549 370.32869093 491.67521954 C370.33774174 494.41874445 370.32853022 497.16160646 370.31452847 499.90509605 C370.32155196 500.70203471 370.32857546 501.49897337 370.33581179 502.32006168 C370.30409707 505.40434021 370.09080856 507.90181411 368.85950732 510.74747026 C365.91188148 513.06232916 363.5113767 512.7613282 359.79944515 512.76622009 C359.06423743 512.77263305 358.32902972 512.77904601 357.57154298 512.78565329 C355.08822443 512.80236195 352.60585712 512.79036868 350.1225214 512.77866173 C348.33205181 512.78469829 346.54158737 512.79247398 344.75113213 512.80184686 C339.81551291 512.82250928 334.88018256 512.81801745 329.94453907 512.80948567 C324.62736426 512.80456949 319.31026067 512.82255689 313.99311161 512.83756065 C303.56899014 512.86311246 293.14497156 512.86663468 282.72082405 512.86196013 C274.24842002 512.85839904 265.77604732 512.86188175 257.30364704 512.87040901 C255.4972313 512.87219458 255.4972313 512.87219458 253.6543223 512.87401622 C251.20804348 512.87643965 248.76176466 512.87886792 246.31548585 512.88130097 C223.35135262 512.90307542 200.38727806 512.89871657 177.42314149 512.88653128 C156.40989398 512.87619727 135.39683201 512.8986881 114.3836212 512.93672772 C92.81943854 512.975466 71.25534369 512.99199937 49.69112599 512.98448122 C37.579724 512.98065347 25.46847986 512.98566772 13.35710621 513.01391029 C3.04335987 513.03771679 -7.27013156 513.04057209 -17.58388133 513.01632996 C-22.8468254 513.00453589 -28.10930298 513.00239792 -33.37221622 513.02633476 C-38.19136806 513.04799843 -43.00966247 513.04191217 -47.82877372 513.01381139 C-49.5710933 513.00850225 -51.31347947 513.01329869 -53.05573381 513.02928312 C-62.46221939 513.1095851 -69.79313018 512.9899936 -77.06299496 506.25726891 C-78.05428402 505.45805016 -79.04557308 504.65883141 -80.06690121 503.83539391 C-100.37967012 485.35232479 -112.67179583 461.67737823 -113.9863348 434.12128258 C-114.69287314 410.30192097 -106.49981734 388.34418955 -91.06299496 370.25726891 C-90.42104183 369.47094078 -89.77908871 368.68461266 -89.11768246 367.87445641 C-76.79281132 353.36658227 -60.87792362 344.59016592 -44.06299496 336.25726891 C-44.82611996 335.86539391 -45.58924496 335.47351891 -46.37549496 335.06976891 C-49.55536872 332.92520288 -50.49442491 331.76401459 -52.06299496 328.25726891 C-52.52443179 324.77164604 -52.52719175 321.3316103 -52.50049496 317.81976891 C-52.53046566 316.42661461 -52.53046566 316.42661461 -52.56104183 315.00531578 C-52.55698728 309.30866564 -52.10623252 305.61843627 -48.06299496 301.25726891 C-44.34694757 299.38869844 -41.38193305 299.03271618 -37.25049496 299.13226891 C-36.27467464 299.15031578 -35.29885433 299.16836266 -34.29346371 299.18695641 C-33.18938168 299.22176109 -33.18938168 299.22176109 -32.06299496 299.25726891 C-34.07065579 295.77396769 -36.07873562 292.29090836 -38.08716488 288.80805016 C-39.09689569 287.05686876 -40.10631703 285.30550892 -41.11572933 283.55414391 C-41.76992855 282.41976891 -42.42412777 281.28539391 -43.09815121 280.11664391 C-43.75267269 278.97848228 -44.40719418 277.84032066 -45.08154964 276.6676693 C-46.40291257 274.39338163 -47.74219976 272.12941432 -49.09912777 269.87616539 C-49.73302425 268.81985924 -50.36692074 267.76355309 -51.02002621 266.67523766 C-51.5908392 265.73704185 -52.16165218 264.79884605 -52.74976254 263.83222008 C-54.75211526 259.90606016 -54.82225227 257.58503558 -54.06299496 253.25726891 C-52.86726046 250.50707955 -51.93911515 248.88996111 -49.51123714 247.13666344 C-45.75337845 245.78686218 -42.10222183 246.01283679 -38.14111996 246.06195641 C-36.85114101 246.06620125 -36.85114101 246.06620125 -35.53510189 246.07053185 C-32.79425675 246.08170741 -30.05374097 246.10680711 -27.31299496 246.13226891 C-25.4523226 246.1423021 -23.59164511 246.15142736 -21.73096371 246.15961266 C-17.17484764 246.18163815 -12.6189771 246.21614993 -8.06299496 246.25726891 C-8.06483854 245.00160181 -8.06668213 243.74593472 -8.06858158 242.4522171 C-8.11186201 212.67045849 -8.1448583 182.88870795 -8.16512562 153.10692561 C-8.16762714 149.44431212 -8.17021578 145.7816987 -8.17285824 142.11908531 C-8.17338286 141.38989993 -8.17390748 140.66071454 -8.174448 139.90943263 C-8.18315956 128.08996311 -8.19893365 116.27051296 -8.21730055 104.45105495 C-8.23597873 92.33053349 -8.24710726 80.21002221 -8.25117195 68.08948696 C-8.25392134 60.60557219 -8.26261676 53.12171219 -8.27882789 45.63781427 C-8.29061207 39.90701311 -8.29191159 34.17624734 -8.28921032 28.44543648 C-8.28976295 26.08871434 -8.29377289 23.73199022 -8.30140591 21.37528038 C-8.31128137 18.17042944 -8.30899106 14.96581742 -8.30350399 11.76096153 C-8.30932967 10.81739583 -8.31515536 9.87383013 -8.32115757 8.90167153 C-8.31717548 8.04774091 -8.31319338 7.19381029 -8.30909061 6.31400299 C-8.31022978 5.20332102 -8.31022978 5.20332102 -8.31139195 4.07020104 C-7.66057857 -0.67977789 -3.85307808 0.00480093 0 0 Z " fill="#FCF5EB" transform="translate(128.06299495697021,-0.25726890563964844)"/>
<path d="M0 0 C1.27966644 -0.01094193 2.55933289 -0.02188385 3.8777771 -0.03315735 C6.57573566 -0.05247062 9.27317727 -0.0560545 11.97119141 -0.04956055 C14.70447803 -0.04477669 17.4355502 -0.06547276 20.16845703 -0.11108398 C48.96996614 -0.5860665 48.96996614 -0.5860665 62.4609375 7.63671875 C63.67484813 8.33053936 64.89052324 9.02128158 66.10791016 9.70898438 C90.07778427 23.55937298 109.52259218 45.24942826 116.77734375 72.30859375 C122.70584487 96.60261397 118.88967143 121.26937716 106.546875 143.0078125 C102.18478472 149.82900946 97.06530552 155.81238407 91.4609375 161.63671875 C90.70554688 162.43207031 89.95015625 163.22742188 89.171875 164.046875 C86.97387516 166.30907759 84.79975058 168.5193984 82.4609375 170.63671875 C81.93529929 171.13183582 81.40966108 171.6269529 80.86809444 172.13707352 C75.15399674 177.02499091 70.58775667 177.50042408 63.23071289 177.41308594 C62.13209427 177.42359985 61.03347565 177.43411377 59.90156555 177.44494629 C56.28665511 177.47125421 52.67352067 177.45390448 49.05859375 177.43359375 C46.53567671 177.43763823 44.01276196 177.44346361 41.48985291 177.45098877 C36.20830332 177.45982307 30.92721119 177.4475916 25.64575195 177.41894531 C19.55940117 177.38631233 13.47425714 177.39686207 7.3879357 177.42990375 C1.50917593 177.46052851 -4.36912921 177.45713949 -10.24792671 177.43961334 C-12.73851251 177.43562176 -15.22912927 177.44048421 -17.71967888 177.45449066 C-21.20708603 177.46979918 -24.69220577 177.44640609 -28.17944336 177.41308594 C-29.20050171 177.42523132 -30.22156006 177.43737671 -31.27355957 177.44989014 C-38.58972601 177.320954 -42.90880081 175.23621827 -48.5390625 170.63671875 C-49.53035156 169.8375 -50.52164063 169.03828125 -51.54296875 168.21484375 C-71.85573766 149.73177463 -84.14786337 126.05682808 -85.46240234 98.50073242 C-86.16894068 74.68137081 -77.97588488 52.7236394 -62.5390625 34.63671875 C-61.89710937 33.85039062 -61.25515625 33.0640625 -60.59375 32.25390625 C-50.41469685 20.27192117 -37.5885409 11.51565235 -23.5390625 4.63671875 C-22.84585907 4.29178375 -22.15265564 3.94684875 -21.43844604 3.59146118 C-14.27493081 0.36090468 -7.78631221 0.00845275 0 0 Z " fill="#FDD402" transform="translate(99.5390625,335.36328125)"/>
<path d="M0 0 C0.79497894 0.00444122 1.58995789 0.00888245 2.4090271 0.01345825 C3.30980988 0.01360931 4.21059265 0.01376038 5.13867188 0.01391602 C6.11266937 0.02423859 7.08666687 0.03456116 8.09017944 0.04519653 C9.08617157 0.04802643 10.0821637 0.05085632 11.1083374 0.05377197 C14.29771813 0.06499063 17.48682072 0.09009822 20.67611694 0.11550903 C22.83496706 0.12553666 24.99382157 0.13466288 27.15267944 0.14285278 C32.45225393 0.16493543 37.75166557 0.19842945 43.05111694 0.24050903 C42.72111694 0.90050903 42.39111694 1.56050903 42.05111694 2.24050903 C41.89670485 4.344259 41.80119055 6.45246022 41.73471069 8.56082153 C41.69281616 9.81765747 41.65092163 11.07449341 41.60775757 12.36941528 C41.56844116 13.68812622 41.52912476 15.00683716 41.48861694 16.36550903 C41.44542183 17.70536654 41.40180721 19.0452106 41.35775757 20.38504028 C41.25140713 23.67008718 41.14937886 26.95521184 41.05111694 30.24050903 C42.07984421 30.23162659 43.10857147 30.22274414 44.16847229 30.21359253 C53.86479193 30.13249434 63.56104274 30.0725377 73.25762463 30.03326035 C78.24272488 30.01238852 83.22755126 29.98407816 88.2124939 29.93875122 C93.02356469 29.89527919 97.83437211 29.87136888 102.64562416 29.86100006 C104.48085997 29.85361114 106.31608142 29.83918223 108.15120506 29.81758881 C110.72256962 29.78853647 113.292847 29.78455374 115.86434937 29.78640747 C116.62248428 29.77202637 117.3806192 29.75764526 118.16172791 29.74282837 C121.84909831 29.77157795 123.88573805 30.13452884 127.02128601 32.14389038 C129.05111694 34.24050903 129.05111694 34.24050903 129.71517944 36.24050903 C129.70228882 36.90050903 129.68939819 37.56050903 129.67611694 38.24050903 C129.68900757 38.90050903 129.70189819 39.56050903 129.71517944 40.24050903 C128.65570793 43.43138796 126.85347473 44.44812887 124.05111694 46.24050903 C121.1576625 46.6077166 118.65783691 46.74861432 115.77255249 46.6946106 C114.52271308 46.69533381 114.52271308 46.69533381 113.2476244 46.69607162 C110.56058788 46.69309499 107.87467265 46.66267792 105.18783569 46.63113403 C103.52495864 46.62525008 101.86207418 46.6211711 100.19918823 46.618927 C94.04555121 46.59798808 87.89207296 46.54214291 81.73861694 46.49050903 C67.98174194 46.40800903 54.22486694 46.32550903 40.05111694 46.24050903 C40.05111694 81.22050903 40.05111694 116.20050903 40.05111694 152.24050903 C46.32111694 152.24050903 52.59111694 152.24050903 59.05111694 152.24050903 C61.05111694 154.24050903 61.05111694 154.24050903 61.29162598 156.60699463 C61.28718475 157.59738739 61.28274353 158.58778015 61.27816772 159.60818481 C61.27801666 160.72919586 61.2778656 161.85020691 61.27770996 163.00518799 C61.26738739 164.21979706 61.25706482 165.43440613 61.24642944 166.68582153 C61.24359955 167.92597015 61.24076965 169.16611877 61.237854 170.44384766 C61.22853869 173.74175536 61.21056584 177.03946876 61.18844604 180.33731079 C61.16799168 183.70215473 61.15885318 187.0670271 61.14877319 190.43191528 C61.12668213 197.03485626 61.09318177 203.63766675 61.05111694 210.24050903 C59.71149902 210.26238281 59.71149902 210.26238281 58.34481812 210.28469849 C55.02894417 210.34577981 51.71389795 210.41993381 48.39852905 210.50296021 C46.96407066 210.53619904 45.52948182 210.56423438 44.09481812 210.58694458 C42.03150888 210.62051174 39.96939392 210.67282317 37.90658569 210.72879028 C36.04489746 210.76806641 36.04489746 210.76806641 34.14559937 210.80813599 C31.0821218 210.98850218 31.0821218 210.98850218 29.14096069 212.63113403 C27.65963873 214.81860589 27.74993355 216.31329093 27.86361694 218.92800903 C27.92549194 220.35113403 27.98736694 221.77425903 28.05111694 223.24050903 C32.34111694 223.90050903 36.63111694 224.56050903 41.05111694 225.24050903 C41.05111694 264.84050903 41.05111694 304.44050903 41.05111694 345.24050903 C31.64611694 341.28050903 31.64611694 341.28050903 22.05111694 337.24050903 C16.65795736 336.5793716 12.13960355 336.22229149 6.80892944 336.34597778 C5.45800247 336.34607693 4.10707014 336.34218121 2.75616455 336.33457947 C-0.73099413 336.32335264 -4.2160964 336.35621565 -7.70291138 336.40249634 C-13.32809969 336.47016047 -18.95353163 336.47155263 -24.57904434 336.46581459 C-26.52508891 336.47087129 -28.4710298 336.49902009 -30.41687012 336.52766418 C-31.59645294 336.53369156 -32.77603577 336.53971893 -33.99136353 336.54592896 C-35.02437592 336.55895554 -36.05738831 336.57198212 -37.1217041 336.58540344 C-41.33248735 336.07171979 -43.96405111 334.36326055 -46.73403931 331.20535278 C-48.55500426 326.76126147 -48.42254103 322.55942584 -48.38638306 317.80300903 C-48.40636353 316.8742395 -48.42634399 315.94546997 -48.44692993 314.98855591 C-48.44287538 309.29190577 -47.99212062 305.60167639 -43.94888306 301.24050903 C-40.23283567 299.37193856 -37.26782115 299.01595631 -33.13638306 299.11550903 C-32.16056274 299.13355591 -31.18474243 299.15160278 -30.17935181 299.17019653 C-29.07526978 299.20500122 -29.07526978 299.20500122 -27.94888306 299.24050903 C-29.95654389 295.75720781 -31.96462372 292.27414849 -33.97305298 288.79129028 C-34.98278379 287.04010888 -35.99220513 285.28874905 -37.00161743 283.53738403 C-37.65581665 282.40300903 -38.31001587 281.26863403 -38.98403931 280.09988403 C-39.63856079 278.96172241 -40.29308228 277.82356079 -40.96743774 276.65090942 C-42.28880067 274.37662176 -43.62808786 272.11265445 -44.98501587 269.85940552 C-45.61891235 268.80309937 -46.25280884 267.74679321 -46.90591431 266.65847778 C-47.47672729 265.72028198 -48.04754028 264.78208618 -48.63565063 263.81546021 C-50.63800336 259.88930028 -50.70814037 257.56827571 -49.94888306 253.24050903 C-48.75314856 250.49031968 -47.82500325 248.87320124 -45.39712524 247.11990356 C-41.63926655 245.77010231 -37.98810993 245.99607691 -34.02700806 246.04519653 C-32.73702911 246.04944138 -32.73702911 246.04944138 -31.42098999 246.05377197 C-28.68014485 246.06494753 -25.93962907 246.09004724 -23.19888306 246.11550903 C-21.3382107 246.12554223 -19.47753321 246.13466749 -17.61685181 246.14285278 C-13.06073574 246.16487828 -8.5048652 246.19939006 -3.94888306 246.24050903 C-3.95072664 244.98484194 -3.95257023 243.72917484 -3.95446968 242.43545723 C-3.99775011 212.65369861 -4.0307464 182.87194808 -4.05101372 153.09016574 C-4.05351524 149.42755225 -4.05610388 145.76493883 -4.05874634 142.10232544 C-4.05927096 141.37314006 -4.05979558 140.64395467 -4.0603361 139.89267276 C-4.06904766 128.07320324 -4.08482175 116.25375309 -4.10318865 104.43429507 C-4.12186683 92.31377362 -4.13299536 80.19326234 -4.13706005 68.07272708 C-4.13980944 60.58881231 -4.14850486 53.10495231 -4.16471599 45.6210544 C-4.17650017 39.89025324 -4.17779969 34.15948747 -4.17509842 28.42867661 C-4.17565105 26.07195446 -4.17966099 23.71523035 -4.18729401 21.35852051 C-4.19716947 18.15366956 -4.19487916 14.94905754 -4.18939209 11.74420166 C-4.19521777 10.80063596 -4.20104346 9.85707026 -4.20704567 8.88491166 C-4.20306358 8.03098104 -4.19908148 7.17705042 -4.19497871 6.29724312 C-4.19573815 5.55678847 -4.1964976 4.81633383 -4.19728005 4.05344117 C-3.82162579 1.31171847 -2.71663552 0.33525633 0 0 Z " fill="#FDF0D9" transform="translate(123.94888305664063,-0.240509033203125)"/>
<path d="M0 0 C1.46566406 -0.00386719 1.46566406 -0.00386719 2.9609375 -0.0078125 C3.98445312 -0.00007813 5.00796875 0.00765625 6.0625 0.015625 C7.08601562 0.00789063 8.10953125 0.00015625 9.1640625 -0.0078125 C10.14117187 -0.00523438 11.11828125 -0.00265625 12.125 0 C13.02347656 0.00225586 13.92195312 0.00451172 14.84765625 0.00683594 C17.0625 0.265625 17.0625 0.265625 19.0625 2.265625 C19.30859566 4.54197884 19.30859566 4.54197884 19.30300903 7.44143677 C19.30713303 9.0863208 19.30713303 9.0863208 19.31134033 10.76443481 C19.3005545 12.577043 19.3005545 12.577043 19.28955078 14.42626953 C19.28984283 15.69452576 19.29013489 16.96278198 19.29043579 18.26947021 C19.29101097 21.75276808 19.27923007 25.23592894 19.26528788 28.71919489 C19.25280796 32.35737576 19.25161219 35.99555957 19.24923706 39.63375854 C19.24301421 46.52566955 19.22659256 53.41751732 19.20653808 60.30940044 C19.18420406 68.15451236 19.17319195 75.99962726 19.16314721 83.84476304 C19.14222699 99.98509325 19.10554077 116.12533632 19.0625 132.265625 C28.6325 132.265625 38.2025 132.265625 48.0625 132.265625 C48.05726318 129.12039307 48.05202637 125.97516113 48.04663086 122.73461914 C48.03009712 112.36897905 48.01902965 102.0033384 48.01068783 91.63768864 C48.00545838 85.35000476 47.99835961 79.06233434 47.98706055 72.7746582 C47.97623386 66.71224777 47.97022363 60.64985031 47.96762276 54.58743095 C47.96576811 52.26886223 47.96214675 49.95029426 47.95676994 47.63173103 C47.94956242 44.39647992 47.94850894 41.16128317 47.94897461 37.92602539 C47.94537933 36.95714386 47.94178406 35.98826233 47.93807983 34.99002075 C47.9394545 34.11357407 47.94082916 33.23712738 47.94224548 32.3341217 C47.94086279 31.18510675 47.94086279 31.18510675 47.93945217 30.01287937 C48.0625 28.265625 48.0625 28.265625 49.0625 27.265625 C52.86838144 27.01353778 56.68675456 27.08040156 60.5 27.078125 C62.11358398 27.05975586 62.11358398 27.05975586 63.75976562 27.04101562 C64.78650391 27.03908203 65.81324219 27.03714844 66.87109375 27.03515625 C68.29119751 27.02899292 68.29119751 27.02899292 69.73999023 27.02270508 C72.0625 27.265625 72.0625 27.265625 74.0625 29.265625 C74.30859566 31.12030983 74.30859566 31.12030983 74.30300903 33.41641235 C74.30713303 34.72052315 74.30713303 34.72052315 74.31134033 36.05097961 C74.3005545 37.48488289 74.3005545 37.48488289 74.28955078 38.94775391 C74.28984283 39.95266373 74.29013489 40.95757355 74.29043579 41.99293518 C74.28903856 45.32610607 74.27345882 48.65905549 74.2578125 51.9921875 C74.25408377 54.29861326 74.25123614 56.6050406 74.24923706 58.91146851 C74.24158959 64.99097036 74.22193154 71.07037711 74.1998291 77.14984131 C74.17939463 83.34988112 74.17024048 89.54993625 74.16015625 95.75 C74.1386867 107.92191685 74.10453735 120.09376303 74.0625 132.265625 C74.77802536 132.25452194 75.49355072 132.24341888 76.23075867 132.23197937 C82.98379018 132.13166975 89.73661292 132.05560617 96.49022198 132.00656414 C99.96214849 131.98050273 103.43345792 131.94517113 106.9050293 131.88842773 C110.89898499 131.82355666 114.89229558 131.79941638 118.88671875 131.77734375 C120.12959152 131.75153732 121.37246429 131.7257309 122.65299988 131.69914246 C132.25901614 131.6960173 132.25901614 131.6960173 135.38208008 134.56958008 C137.0625 137.265625 137.0625 137.265625 137.125 140.890625 C135.94272055 144.6461009 135.37002412 145.34710143 132.0625 147.265625 C129.6018157 147.64282316 129.6018157 147.64282316 126.78694916 147.64594173 C125.71204932 147.65438168 124.63714948 147.66282162 123.52967691 147.67151731 C122.34953563 147.66550727 121.16939435 147.65949722 119.95349121 147.65330505 C118.6992452 147.65869059 117.44499919 147.66407613 116.15274572 147.66962487 C112.66914816 147.68411249 109.18578652 147.67982454 105.70217586 147.67245805 C101.94614724 147.66773688 98.19017045 147.68022683 94.43415833 147.69047546 C87.0752671 147.707689 79.71646117 147.70849827 72.35755503 147.70326256 C66.37798421 147.69922468 60.39843863 147.70065986 54.41886902 147.70601082 C53.14336044 147.70713345 53.14336044 147.70713345 51.84208402 147.70827876 C50.11475407 147.7098102 48.38742414 147.71134855 46.6600942 147.71289373 C30.45463771 147.7266278 14.24922947 147.72117453 -1.95622593 147.70970852 C-16.79076229 147.69977324 -31.62517398 147.71272028 -46.45969111 147.73664271 C-61.68337712 147.76100823 -76.907005 147.77064799 -92.13071012 147.76398998 C-100.68107447 147.76049233 -109.23134287 147.7627658 -117.7816925 147.78024101 C-125.05974167 147.79493112 -132.33762734 147.79564034 -139.61567318 147.7781701 C-143.33063779 147.76963158 -147.04530994 147.7675795 -150.76025963 147.78282166 C-154.78324286 147.79912368 -158.80551439 147.78458195 -162.82849121 147.76683044 C-164.00863249 147.77643545 -165.18877378 147.78604046 -166.40467691 147.79593652 C-167.47957675 147.78612223 -168.55447659 147.77630794 -169.66194916 147.76619625 C-170.59085512 147.76608891 -171.51976108 147.76598158 -172.4768157 147.76587099 C-175.72815732 147.10488794 -176.92258516 145.8559756 -178.9375 143.265625 C-179.46988713 139.53891509 -179.58663148 137.31529748 -177.58294678 134.07525635 C-173.35798992 131.18515308 -169.11021049 131.74253488 -164.11035156 131.81152344 C-162.45624519 131.81064728 -162.45624519 131.81064728 -160.76872253 131.80975342 C-157.12153718 131.81254151 -153.4751677 131.84366928 -149.828125 131.875 C-147.30035855 131.88245977 -144.77258631 131.88815395 -142.24481201 131.89215088 C-136.27010787 131.90586616 -130.29575427 131.93739549 -124.3211906 131.97754884 C-117.51836668 132.02227517 -110.71552869 132.04425569 -103.91259432 132.06433058 C-89.92073397 132.10612873 -75.92913303 132.1764753 -61.9375 132.265625 C-61.93842179 131.7099437 -61.93934359 131.15426241 -61.94029331 130.58174229 C-61.96234982 117.0788595 -61.97884841 103.57597985 -61.98931217 90.07308292 C-61.9945417 83.54326267 -62.00164061 77.01345537 -62.01293945 70.48364258 C-62.02376585 64.18781341 -62.02977631 57.89199674 -62.03237724 51.59615898 C-62.03423194 49.18827556 -62.0378534 46.78039286 -62.04323006 44.37251472 C-62.0504372 41.01273214 -62.05149108 37.6530019 -62.05102539 34.29321289 C-62.05462067 33.28692841 -62.05821594 32.28064392 -62.06192017 31.24386597 C-62.0605455 30.33376266 -62.05917084 29.42365936 -62.05775452 28.48597717 C-62.05867631 27.69046983 -62.0595981 26.89496248 -62.06054783 26.07534885 C-61.9375 24.265625 -61.9375 24.265625 -60.9375 23.265625 C-59.16890807 23.16616047 -57.39638549 23.13482283 -55.625 23.1328125 C-54.54992187 23.13152344 -53.47484375 23.13023438 -52.3671875 23.12890625 C-51.23539062 23.13277344 -50.10359375 23.13664062 -48.9375 23.140625 C-47.80570313 23.13675781 -46.67390625 23.13289063 -45.5078125 23.12890625 C-44.43273437 23.13019531 -43.35765625 23.13148437 -42.25 23.1328125 C-41.25613281 23.13394043 -40.26226562 23.13506836 -39.23828125 23.13623047 C-36.9375 23.265625 -36.9375 23.265625 -35.9375 24.265625 C-35.8420307 25.66973817 -35.81561471 27.07862309 -35.81724548 28.48597717 C-35.81518349 29.85113213 -35.81518349 29.85113213 -35.81307983 31.24386597 C-35.81667511 32.25015045 -35.82027039 33.25643494 -35.82397461 34.29321289 C-35.82382858 35.34674454 -35.82368256 36.40027618 -35.8235321 37.48573303 C-35.82423174 40.986603 -35.83202652 44.48742052 -35.83984375 47.98828125 C-35.84170775 50.40823843 -35.84313174 52.82819599 -35.84413147 55.24815369 C-35.84795808 61.63177524 -35.85778959 68.01537421 -35.86883545 74.39898682 C-35.87904649 80.90726414 -35.88362843 87.4155451 -35.88867188 93.92382812 C-35.89941173 106.70443863 -35.91700968 119.48502641 -35.9375 132.265625 C-26.3675 132.265625 -16.7975 132.265625 -6.9375 132.265625 C-6.94797363 128.3380127 -6.95844727 124.41040039 -6.96923828 120.36376953 C-7.00231447 107.41571096 -7.0245459 94.46765307 -7.04112434 81.51956367 C-7.05144684 73.66585261 -7.06552571 65.81218151 -7.08837891 57.95849609 C-7.10828306 51.11502585 -7.12120935 44.27158454 -7.12567699 37.42808616 C-7.12828943 33.80287272 -7.13444987 30.17774205 -7.14896011 26.55255508 C-7.16500873 22.51042218 -7.16548161 18.46843416 -7.16455078 14.42626953 C-7.17174133 13.21786407 -7.17893188 12.00945862 -7.18634033 10.76443481 C-7.183591 9.66784546 -7.18084167 8.5712561 -7.17800903 7.44143677 C-7.17985262 6.48461565 -7.18169621 5.52779453 -7.18359566 4.54197884 C-6.68318245 -0.08678033 -3.9807421 0.00999469 0 0 Z " fill="#8EBAC5" transform="translate(329.9375,77.734375)"/>
<path d="M0 0 C2.96991643 0.32845176 4.5852352 0.59864871 6.76509094 2.70800781 C7.30707626 3.44889648 7.84906158 4.18978516 8.4074707 4.953125 C9.36191826 6.20923584 9.36191826 6.20923584 10.33564758 7.49072266 C11.02539169 8.40128418 11.7151358 9.3118457 12.42578125 10.25 C31.68469007 34.58651281 31.68469007 34.58651281 59.54716492 45.60522461 C75.83060563 46.99813364 92.41080845 45.83006869 108.61242676 44.00415039 C109.79427551 44.00209595 109.79427551 44.00209595 111 44 C113 46 113 46 113.28540039 47.85205078 C113.28476666 53.61008761 112.33798024 58.45281593 110.4375 63.875 C110.16719971 64.65875 109.89689941 65.4425 109.6184082 66.25 C107.25681688 72.80539348 104.27536336 78.4702945 100 84 C99.03320312 85.27230469 99.03320312 85.27230469 98.046875 86.5703125 C89.94559797 96.38185912 79.01225826 102.98848518 67 107 C65.948125 107.391875 64.89625 107.78375 63.8125 108.1875 C47.48173755 112.90527582 31.13122933 109.21003406 16.375 101.65625 C0.53700325 92.74737683 -9.61208539 79.18246719 -15 62 C-15.24492187 61.27941406 -15.48984375 60.55882812 -15.7421875 59.81640625 C-20.15057765 44.32665183 -16.81284561 26.97725188 -9.625 13 C-6.8551239 8.14822998 -3.85063078 4.03846643 0 0 Z " fill="#02CFFA" transform="translate(340,279)"/>
<path d="M0 0 C0.98467255 0.00565979 1.96934509 0.01131958 2.9838562 0.01715088 C6.09132037 0.03932389 9.19757907 0.08948315 12.3046875 0.140625 C14.42706654 0.16071469 16.54946387 0.1789611 18.671875 0.1953125 C23.84160168 0.23912593 29.01044109 0.30801873 34.1796875 0.390625 C31.38289439 2.25515374 28.59246369 3.58820604 25.53149414 4.95288086 C12.43309443 10.836462 1.59134603 18.44650209 -8.8203125 28.390625 C-9.83158203 29.28974609 -9.83158203 29.28974609 -10.86328125 30.20703125 C-26.95213599 45.07557366 -36.81055862 68.38982024 -38.0234375 90.01171875 C-38.32536202 114.59340637 -30.69506357 137.43482242 -14.8203125 156.390625 C-14.07136719 157.12023437 -13.32242188 157.84984375 -12.55078125 158.6015625 C-10.8203125 160.390625 -10.8203125 160.390625 -10.8203125 162.390625 C-10.24925781 162.63941406 -9.67820312 162.88820313 -9.08984375 163.14453125 C-6.4887414 164.57267522 -4.65315463 166.28185729 -2.5078125 168.328125 C1.24439093 171.75107879 4.39155403 173.76062212 9.1796875 175.390625 C9.1796875 175.720625 9.1796875 176.050625 9.1796875 176.390625 C2.79369017 176.54357125 -3.59182984 176.64817088 -9.97924805 176.72021484 C-12.14902395 176.75026759 -14.31867958 176.79112237 -16.48803711 176.84326172 C-19.61862962 176.91658444 -22.74760757 176.95019716 -25.87890625 176.9765625 C-27.31851967 177.02301407 -27.31851967 177.02301407 -28.78721619 177.07040405 C-36.03677242 177.07397407 -40.24760289 174.92732876 -45.8203125 170.390625 C-46.81160156 169.59140625 -47.80289063 168.7921875 -48.82421875 167.96875 C-69.13698766 149.48568088 -81.42911337 125.81073433 -82.74365234 98.25463867 C-83.45019068 74.43527706 -75.25713488 52.47754565 -59.8203125 34.390625 C-59.17835937 33.60429687 -58.53640625 32.81796875 -57.875 32.0078125 C-44.15946316 15.86295548 -21.8721704 -0.48413269 0 0 Z " fill="#FAC600" transform="translate(96.8203125,335.609375)"/>
<path d="M0 0 C1.57121864 -0.002062 1.57121864 -0.002062 3.17417908 -0.00416565 C4.32288483 -0.00057037 5.47159058 0.0030249 6.65510559 0.00672913 C8.46992683 0.00651009 8.46992683 0.00651009 10.32141113 0.00628662 C13.63933383 0.00686433 16.95719448 0.01188312 20.27510619 0.01886058 C23.74245379 0.02510756 27.20980219 0.02569898 30.67715454 0.02688599 C37.24318296 0.02999533 43.80919474 0.03820338 50.37521583 0.04823548 C57.85035248 0.05940892 65.32548992 0.06491017 72.80063283 0.06993091 C88.17767214 0.08038631 103.55468853 0.09872688 118.93171692 0.12025452 C118.93171692 11.01025452 118.93171692 21.90025452 118.93171692 33.12025452 C103.03266677 33.21065324 87.13382123 33.28429354 71.23458862 33.3275032 C63.85179931 33.34810215 56.46918137 33.37617134 49.08650208 33.42201233 C42.64949296 33.46196225 36.21260801 33.48770672 29.77547836 33.4966085 C26.36904779 33.50180957 22.96297231 33.5139773 19.55665588 33.54317474 C15.74786903 33.57224615 11.93981577 33.57620875 8.13093567 33.57435608 C7.00955704 33.58873718 5.88817841 33.60311829 4.7328186 33.61793518 C-1.64344762 33.58441418 -6.83152081 33.01000382 -12.06828308 29.12025452 C-15.88320217 24.32715105 -17.44026837 20.41525387 -17.34953308 14.24525452 C-16.70699104 9.39049241 -14.05726205 6.03686917 -10.50578308 2.74525452 C-6.90846873 0.34704495 -4.22037998 -0.00426732 0 0 Z " fill="#07D0FA" transform="translate(270.0682830810547,429.87974548339844)"/>
<path d="M0 0 C0.67530258 -0.00511093 1.35060516 -0.01022186 2.04637146 -0.01548767 C4.27327395 -0.02935999 6.49986614 -0.02842875 8.72680664 -0.02612305 C10.27853001 -0.03001127 11.83025233 -0.0343462 13.38197327 -0.03910828 C16.63261364 -0.04656538 19.8831454 -0.04628292 23.13378906 -0.04101562 C27.29451721 -0.03522145 31.45480013 -0.05215288 35.61545467 -0.0753603 C38.81969288 -0.09010914 42.02382415 -0.09096779 45.22809029 -0.08785057 C46.76185551 -0.0883632 48.29562682 -0.09359002 49.82935905 -0.10366249 C51.97637542 -0.11603244 54.12252817 -0.10923284 56.26953125 -0.09765625 C58.10009315 -0.09860039 58.10009315 -0.09860039 59.96763611 -0.0995636 C63.49077297 0.30838977 65.33666585 1.23808684 68.19946289 3.2746582 C68.79758789 3.6665332 69.39571289 4.0584082 70.01196289 4.4621582 C72.09221371 7.63727787 71.92463723 10.69887586 71.19946289 14.2746582 C70.12426758 16.60620117 70.12426758 16.60620117 68.68383789 19.1418457 C68.14057861 20.10638672 67.59731934 21.07092773 67.03759766 22.06469727 C66.12772095 23.65362793 66.12772095 23.65362793 65.19946289 25.2746582 C64.53984505 26.44061362 63.88093069 27.60696724 63.22265625 28.77368164 C61.47927456 31.85839083 59.72494571 34.93669704 57.96582031 38.01245117 C56.86918522 39.93075606 55.77547736 41.8507113 54.68188477 43.77075195 C53.98349113 44.99350764 53.28492996 46.21616766 52.58618164 47.4387207 C51.95929443 48.53651855 51.33240723 49.63431641 50.68652344 50.76538086 C49.19946289 53.2746582 49.19946289 53.2746582 48.19946289 54.2746582 C42.77249775 54.76129824 37.34676038 54.93115758 31.90087891 55.06420898 C30.06983807 55.12081744 28.23938827 55.20254654 26.41064453 55.31030273 C14.44022661 56.00251035 14.44022661 56.00251035 9.19946289 54.2746582 C5.60584674 51.02278978 3.85587946 47.55788083 2.01150513 43.11120605 C0.67924066 40.09810239 -1.11195676 37.38329054 -2.86303711 34.59887695 C-4.17746179 32.38778039 -5.48996477 30.17554031 -6.80053711 27.9621582 C-7.47987305 26.84776367 -8.15920898 25.73336914 -8.85913086 24.58520508 C-12.41635935 18.54077961 -14.87626948 14.34026402 -13.80053711 7.2746582 C-12.57481623 4.45550017 -11.67918995 2.85664581 -9.11619568 1.15901184 C-5.99884767 -0.03150825 -3.33644187 0.01260459 0 0 Z " fill="#FDD403" transform="translate(87.800537109375,245.725341796875)"/>
<path d="M0 0 C12.04676968 -0.49647293 24.08093364 2.40476881 34.09765625 9.2421875 C35.21720703 9.97888672 35.21720703 9.97888672 36.359375 10.73046875 C47.49701921 18.65351276 55.74334313 31.7583942 58.09765625 45.2421875 C58.14277498 46.8236401 58.15660495 48.40626587 58.140625 49.98828125 C58.13442139 50.78806396 58.12821777 51.58784668 58.12182617 52.41186523 C58.1138501 53.01587158 58.10587402 53.61987793 58.09765625 54.2421875 C11.86376333 60.50156066 11.86376333 60.50156066 -3.13867188 50.61083984 C-15.14417749 41.40011187 -24.96709199 29.37391912 -33.90234375 17.2421875 C-32.98745616 16.11936177 -32.06434897 15.00323095 -31.13793945 13.88989258 C-30.62479691 13.26762283 -30.11165436 12.64535309 -29.58296204 12.00422668 C-26.85058608 9.13947534 -23.64522932 7.57954192 -20.08984375 5.9296875 C-19.37916748 5.59066406 -18.66849121 5.25164062 -17.9362793 4.90234375 C-11.90150325 2.09848759 -6.62895876 0.55315672 0 0 Z " fill="#FC5426" transform="translate(383.90234375,268.7578125)"/>
<path d="M0 0 C1.46566406 -0.00386719 1.46566406 -0.00386719 2.9609375 -0.0078125 C3.98445313 -0.00007813 5.00796875 0.00765625 6.0625 0.015625 C7.08601563 0.00789063 8.10953125 0.00015625 9.1640625 -0.0078125 C10.14117187 -0.00523438 11.11828125 -0.00265625 12.125 0 C13.02347656 0.00225586 13.92195313 0.00451172 14.84765625 0.00683594 C17.0625 0.265625 17.0625 0.265625 19.0625 2.265625 C19.30859566 4.54197884 19.30859566 4.54197884 19.30300903 7.44143677 C19.30575836 8.53802612 19.30850769 9.63461548 19.31134033 10.76443481 C19.30414978 11.97284027 19.29695923 13.18124573 19.28955078 14.42626953 C19.28984283 15.69452576 19.29013489 16.96278198 19.29043579 18.26947021 C19.29101097 21.75276808 19.27923007 25.23592894 19.26528788 28.71919489 C19.25280796 32.35737576 19.25161219 35.99555957 19.24923706 39.63375854 C19.24301421 46.52566955 19.22659256 53.41751732 19.20653808 60.30940044 C19.18420406 68.15451236 19.17319195 75.99962726 19.16314721 83.84476304 C19.14222699 99.98509325 19.10554077 116.12533632 19.0625 132.265625 C10.4825 132.265625 1.9025 132.265625 -6.9375 132.265625 C-6.98260762 115.35026865 -7.01946625 98.43496343 -7.04112434 81.51956367 C-7.05144684 73.66585261 -7.06552571 65.81218151 -7.08837891 57.95849609 C-7.10828306 51.11502585 -7.12120935 44.27158454 -7.12567699 37.42808616 C-7.12828943 33.80287272 -7.13444987 30.17774205 -7.14896011 26.55255508 C-7.16500873 22.51042218 -7.16548161 18.46843416 -7.16455078 14.42626953 C-7.17174133 13.21786407 -7.17893188 12.00945862 -7.18634033 10.76443481 C-7.183591 9.66784546 -7.18084167 8.5712561 -7.17800903 7.44143677 C-7.17985262 6.48461565 -7.18169621 5.52779453 -7.18359566 4.54197884 C-6.68318245 -0.08678033 -3.9807421 0.00999469 0 0 Z " fill="#07E29C" transform="translate(329.9375,77.734375)"/>
<path d="M0 0 C1.6796875 1.12890625 1.6796875 1.12890625 3 3 C3.29296875 6.13671875 3.29296875 6.13671875 3.1875 9.6875 C3.14689453 11.45673828 3.14689453 11.45673828 3.10546875 13.26171875 C3.07066406 14.16535156 3.03585938 15.06898438 3 16 C4.86205078 15.91298828 4.86205078 15.91298828 6.76171875 15.82421875 C8.40360814 15.77730762 10.04553832 15.73180891 11.6875 15.6875 C12.50412109 15.64560547 13.32074219 15.60371094 14.16210938 15.56054688 C18.59955982 15.47071994 20.42458778 15.56607063 24.08203125 18.32421875 C26 21 26 21 26 24.125 C24.72397941 27.79355919 23.43121556 29.28439222 20 31 C17.26549675 31.12060416 14.55206308 31.1856411 11.81640625 31.2109375 C10.15038071 31.23900084 8.48436521 31.26766527 6.81835938 31.296875 C4.18709538 31.33818444 1.55601984 31.37506477 -1.07543945 31.40136719 C-3.61188598 31.42892951 -6.14747578 31.47479389 -8.68359375 31.5234375 C-9.86495155 31.5283168 -9.86495155 31.5283168 -11.07017517 31.53329468 C-15.25041597 31.60899433 -15.25041597 31.60899433 -18.99243164 33.28369141 C-20.74768369 36.27361674 -20.80334622 39.70438282 -20 43 C-17.87882695 45.66253182 -16.71832815 46.87504778 -13.31787109 47.46655273 C-11.81087646 47.45023804 -11.81087646 47.45023804 -10.2734375 47.43359375 C-9.15839844 47.44326172 -8.04335937 47.45292969 -6.89453125 47.46289062 C-4.57158161 47.44613239 -2.2486569 47.42538193 0.07421875 47.40039062 C8.5722075 47.48332163 15.56020784 48.8479618 21.93994141 54.81420898 C27.48662776 60.80792874 28.57814486 66.58737276 28.44140625 74.63671875 C27.63303062 80.79611184 24.73698452 85.45508457 20.21875 89.65625 C14.50043587 93.97006592 10.0900112 95.27803965 3 95 C3.04640625 95.81984375 3.0928125 96.6396875 3.140625 97.484375 C3.19476563 99.10085938 3.19476563 99.10085938 3.25 100.75 C3.29640625 101.81734375 3.3428125 102.8846875 3.390625 103.984375 C3 107 3 107 1.203125 109.35546875 C-1 111 -1 111 -4.5 111.5625 C-8 111 -8 111 -10.4375 109.1875 C-12.73197952 104.50676177 -12.32289645 100.12149648 -12 95 C-13.16917969 95.05800781 -14.33835937 95.11601562 -15.54296875 95.17578125 C-17.0911058 95.22269449 -18.63928617 95.26819298 -20.1875 95.3125 C-20.95642578 95.35439453 -21.72535156 95.39628906 -22.51757812 95.43945312 C-26.82749996 95.53194072 -28.48279063 95.39929635 -32.015625 92.671875 C-34 90 -34 90 -34.5625 86.9375 C-33.85072839 83.22047046 -33.02762659 82.25555803 -30 80 C-27.09699388 79.5937064 -24.55940211 79.41864278 -21.65625 79.42578125 C-20.85014282 79.41161667 -20.04403564 79.39745209 -19.21350098 79.38285828 C-16.6421981 79.34099573 -14.07159543 79.32573085 -11.5 79.3125 C-8.92873179 79.28339584 -6.35763888 79.24878661 -3.78649902 79.21000671 C-2.18835369 79.18761503 -0.59010047 79.17173763 1.00817871 79.16316223 C6.10114657 79.17109419 6.10114657 79.17109419 11 78 C12.19754817 74.40735548 12.33094958 71.77282526 12 68 C9.91899723 65.25030005 8.75038532 64.13052852 5.31787109 63.53344727 C4.31320801 63.54432373 3.30854492 63.5552002 2.2734375 63.56640625 C1.15839844 63.55673828 0.04335937 63.54707031 -1.10546875 63.53710938 C-3.42841839 63.55386761 -5.7513431 63.57461807 -8.07421875 63.59960938 C-16.56172769 63.51678064 -23.60574641 62.17581285 -29.93994141 56.15649414 C-35.75705436 49.74674574 -36.62642308 44.30444861 -36.375 35.70703125 C-35.68065308 28.84312261 -32.46174803 25.18674428 -27.5625 20.625 C-22.67006413 16.72799481 -18.22162558 15.70373212 -12 16 C-12.04640625 15.26394531 -12.0928125 14.52789062 -12.140625 13.76953125 C-12.43799253 5.72998756 -12.43799253 5.72998756 -10.125 1.875 C-6.4760618 -1.34465135 -4.68460108 -1.14724924 0 0 Z " fill="#11D28D" transform="translate(121,365)"/>
<path d="M0 0 C1.28483276 0.01048874 2.56966553 0.02097748 3.89343262 0.03178406 C5.2876897 0.05414384 6.68193615 0.07717549 8.07617188 0.10083008 C9.51435744 0.1194053 10.95254943 0.13748957 12.39074707 0.15510559 C15.40013386 0.19453536 18.40927199 0.24187642 21.41845703 0.29443359 C25.26838147 0.36076074 29.1181818 0.40438375 32.96848297 0.4416914 C35.93697671 0.47348496 38.90514784 0.51887243 41.87339783 0.56817055 C43.2926568 0.58982774 44.71199296 0.60693539 46.13136292 0.61934471 C48.1177077 0.63844898 50.10382153 0.67817493 52.08984375 0.71875 C53.78264465 0.7444532 53.78264465 0.7444532 55.50964355 0.77067566 C58.9229237 1.23419334 60.79804388 2.13219291 63.54492188 4.18286133 C66.5106319 8.63142636 65.87425825 12.82511748 65.85742188 18.05786133 C65.8815918 19.54866211 65.8815918 19.54866211 65.90625 21.06958008 C65.91241961 30.28697402 65.91241961 30.28697402 62.54492188 34.18286133 C55.7602063 38.70600505 45.90767087 37.35885749 38.03320312 37.38598633 C36.74681442 37.3916864 35.46042572 37.39738647 34.13505554 37.40325928 C31.4262147 37.41370142 28.71740299 37.41959011 26.00854492 37.4230957 C22.54519839 37.42860571 19.08223995 37.45271481 15.61901569 37.48106766 C12.29875225 37.50418884 8.97854289 37.50614062 5.65820312 37.51098633 C4.41855301 37.52333313 3.17890289 37.53567993 1.90168762 37.54840088 C0.74666245 37.54539978 -0.40836273 37.54239868 -1.59838867 37.53930664 C-2.61128464 37.54295227 -3.6241806 37.5465979 -4.66777039 37.550354 C-8.84284316 36.9998914 -11.48897487 35.28426132 -14.24023438 32.14770508 C-16.06119933 27.70361377 -15.9287361 23.50177813 -15.89257812 18.74536133 C-15.91255859 17.8165918 -15.93253906 16.88782227 -15.953125 15.9309082 C-15.94907044 10.23425806 -15.49831569 6.54402869 -11.45507812 2.18286133 C-7.54960583 0.19012842 -4.35061017 -0.05072347 0 0 Z " fill="#05E39C" transform="translate(91.455078125,298.817138671875)"/>
<path d="M0 0 C1.07507813 -0.00128906 2.15015625 -0.00257812 3.2578125 -0.00390625 C4.38960938 -0.00003906 5.52140625 0.00382812 6.6875 0.0078125 C7.81929688 0.00394531 8.95109375 0.00007813 10.1171875 -0.00390625 C11.19226563 -0.00261719 12.26734375 -0.00132813 13.375 0 C14.86580078 0.00169189 14.86580078 0.00169189 16.38671875 0.00341797 C18.6875 0.1328125 18.6875 0.1328125 19.6875 1.1328125 C19.7829693 2.53692567 19.80938529 3.94581059 19.80775452 5.35316467 C19.80912918 6.26326797 19.81050385 7.17337128 19.81192017 8.11105347 C19.80832489 9.11733795 19.80472961 10.12362244 19.80102539 11.16040039 C19.80117142 12.21393204 19.80131744 13.26746368 19.8014679 14.35292053 C19.80076826 17.8537905 19.79297348 21.35460802 19.78515625 24.85546875 C19.78329225 27.27542593 19.78186826 29.69538349 19.78086853 32.11534119 C19.77704192 38.49896274 19.76721041 44.88256171 19.75616455 51.26617432 C19.74595351 57.77445164 19.74137157 64.2827326 19.73632812 70.79101562 C19.72558827 83.57162613 19.70799032 96.35221391 19.6875 109.1328125 C11.1075 109.1328125 2.5275 109.1328125 -6.3125 109.1328125 C-6.3350482 95.06863249 -6.35341345 81.00446438 -6.36431217 66.94027042 C-6.3695417 60.41045017 -6.37664061 53.88064287 -6.38793945 47.35083008 C-6.39876585 41.05500091 -6.40477631 34.75918424 -6.40737724 28.46334648 C-6.40923194 26.05546306 -6.4128534 23.64758036 -6.41823006 21.23970222 C-6.4254372 17.87991964 -6.42649108 14.5201894 -6.42602539 11.16040039 C-6.42962067 10.15411591 -6.43321594 9.14783142 -6.43692017 8.11105347 C-6.4355455 7.20095016 -6.43417084 6.29084686 -6.43275452 5.35316467 C-6.43413721 4.15990366 -6.43413721 4.15990366 -6.43554783 2.94253635 C-6.16995511 -0.96366412 -3.25880506 0.00369838 0 0 Z " fill="#01CFFA" transform="translate(274.3125,100.8671875)"/>
<path d="M0 0 C5.56427915 0.24101397 8.21853469 3.76018887 11.8125 7.5625 C12.40998047 8.17802734 13.00746094 8.79355469 13.62304688 9.42773438 C15.0912621 10.94293249 16.54689553 12.47030438 18 14 C17.34 14.33 16.68 14.66 16 15 C14.73403613 18.24719732 13.91277979 21.63841852 13 25 C12.80148437 25.66644531 12.60296875 26.33289063 12.3984375 27.01953125 C8.15644813 42.05643387 9.69603665 59.8693969 16.93505859 73.79931641 C26.47032467 90.62966228 39.64963766 100.84374941 58 107 C58 107.66 58 108.32 58 109 C43.94896965 113.06569165 28.84318316 108.03877233 16.375 101.65625 C0.53700325 92.74737683 -9.61208539 79.18246719 -15 62 C-15.24492187 61.27941406 -15.48984375 60.55882812 -15.7421875 59.81640625 C-20.15057765 44.32665183 -16.81284561 26.97725188 -9.625 13 C-6.8551239 8.14822998 -3.85063078 4.03846643 0 0 Z " fill="#03C0F9" transform="translate(340,279)"/>
<path d="M0 0 C1.61358398 -0.01836914 1.61358398 -0.01836914 3.25976562 -0.03710938 C4.28650391 -0.03904297 5.31324219 -0.04097656 6.37109375 -0.04296875 C7.79119751 -0.04913208 7.79119751 -0.04913208 9.23999023 -0.05541992 C11.5625 0.1875 11.5625 0.1875 13.5625 2.1875 C13.80859566 4.04218483 13.80859566 4.04218483 13.80300903 6.33828735 C13.80575836 7.20769455 13.80850769 8.07710175 13.81134033 8.97285461 C13.80414978 9.92879013 13.79695923 10.88472565 13.78955078 11.86962891 C13.78984283 12.87453873 13.79013489 13.87944855 13.79043579 14.91481018 C13.78903856 18.24798107 13.77345882 21.58093049 13.7578125 24.9140625 C13.75408377 27.22048826 13.75123614 29.5269156 13.74923706 31.83334351 C13.74158959 37.91284536 13.72193154 43.99225211 13.6998291 50.07171631 C13.67939463 56.27175612 13.67024048 62.47181125 13.66015625 68.671875 C13.63868669 80.84379857 13.60349548 93.01562651 13.5625 105.1875 C4.9825 105.1875 -3.5975 105.1875 -12.4375 105.1875 C-12.46004853 91.64485525 -12.47841364 78.10222287 -12.48931217 64.55956364 C-12.49454162 58.27187976 -12.50164039 51.98420934 -12.51293945 45.6965332 C-12.52376614 39.63412277 -12.52977637 33.57172531 -12.53237724 27.50930595 C-12.53423189 25.19073723 -12.53785325 22.87216926 -12.54323006 20.55360603 C-12.55043758 17.31835492 -12.55149106 14.08315817 -12.55102539 10.84790039 C-12.55462067 9.87901886 -12.55821594 8.91013733 -12.56192017 7.91189575 C-12.5605455 7.03544907 -12.55917084 6.15900238 -12.55775452 5.2559967 C-12.55867631 4.48998673 -12.5595981 3.72397676 -12.56054783 2.93475437 C-12.21277094 -2.00360743 -3.65580937 0.00218257 0 0 Z " fill="#07D0FA" transform="translate(390.4375,104.8125)"/>
<path d="M0 0 C0.94673584 0.00410889 1.89347168 0.00821777 2.86889648 0.01245117 C3.89563477 0.01438477 4.92237305 0.01631836 5.98022461 0.01831055 C7.05594727 0.03055664 8.13166992 0.04280273 9.23999023 0.05541992 C10.31958008 0.05606445 11.39916992 0.05670898 12.51147461 0.05737305 C20.53734426 0.10277394 20.53734426 0.10277394 21.67749023 1.24291992 C21.77256845 3.8293103 21.80305399 6.38890552 21.79101562 8.97558594 C21.79116165 9.78527832 21.79130768 10.5949707 21.79145813 11.42919922 C21.79075877 14.11843501 21.78296533 16.80760241 21.77514648 19.49682617 C21.77328239 21.35627708 21.77185844 23.21572848 21.77085876 25.07518005 C21.76703294 29.97921088 21.75720211 34.88321228 21.74615479 39.78723145 C21.73594204 44.78743085 21.73136144 49.78763498 21.72631836 54.7878418 C21.7155799 64.60621621 21.69798259 74.42456102 21.67749023 84.24291992 C13.09749023 84.24291992 4.51749023 84.24291992 -4.32250977 84.24291992 C-4.36763388 73.58599256 -4.40435269 62.9291283 -4.42613411 52.27212715 C-4.4365863 47.3240416 -4.45077159 42.3760246 -4.47338867 37.42797852 C-4.49506599 32.65584511 -4.50706757 27.88377779 -4.51226425 23.11159897 C-4.51596922 21.28787063 -4.52320377 19.46414604 -4.53396988 17.64044571 C-4.54841697 15.0926548 -4.55049057 12.5451395 -4.54956055 9.99731445 C-4.5567511 9.23774445 -4.56394165 8.47817444 -4.5713501 7.69558716 C-4.54269252 0.47513708 -4.54269252 0.47513708 0 0 Z " fill="#FDD402" transform="translate(217.322509765625,125.757080078125)"/>
<path d="M0 0 C7.1173521 -0.09203473 14.23262372 -0.17161602 21.35009766 -0.21972656 C23.7691143 -0.23979065 26.18808276 -0.26704843 28.60693359 -0.30175781 C32.09224368 -0.35050341 35.57691016 -0.37302164 39.0625 -0.390625 C40.13677246 -0.41127014 41.21104492 -0.43191528 42.31787109 -0.45318604 C48.74298921 -0.45508831 53.66508605 0.23985731 59 4 C62.94894493 8.05019993 63.78667717 10.78144261 64.3125 16.25 C63.92511518 20.89861782 62.80107038 24.25438263 60 28 C55.48248964 31.57294001 50.76566829 33.12787322 45.06958008 33.11352539 C44.06876907 33.11344986 43.06795807 33.11337433 42.03681946 33.11329651 C40.95861435 33.10813522 39.88040924 33.10297394 38.76953125 33.09765625 C37.66397385 33.0962413 36.55841644 33.09482635 35.4193573 33.09336853 C31.88371083 33.08776514 28.34812738 33.07521204 24.8125 33.0625 C22.41731862 33.05748544 20.02213625 33.05292246 17.62695312 33.04882812 C11.75125819 33.03864494 5.87569975 33.01907007 0 33 C0 22.11 0 11.22 0 0 Z " fill="#FB582B" transform="translate(389,430)"/>
<path d="M0 0 C1.02996094 -0.00128906 2.05992187 -0.00257813 3.12109375 -0.00390625 C4.74724609 0.00189453 4.74724609 0.00189453 6.40625 0.0078125 C7.49035156 0.00394531 8.57445312 0.00007812 9.69140625 -0.00390625 C10.72136719 -0.00261719 11.75132812 -0.00132812 12.8125 0 C14.24045898 0.00169189 14.24045898 0.00169189 15.69726562 0.00341797 C17.90625 0.1328125 17.90625 0.1328125 18.90625 1.1328125 C19.00064978 3.40273137 19.02367226 5.67563217 19.01977539 7.94750977 C19.01992142 8.65966644 19.02006744 9.37182312 19.0202179 10.1055603 C19.0195187 12.47014362 19.01172606 14.83464911 19.00390625 17.19921875 C19.00204209 18.83446713 19.00061818 20.46971607 18.99961853 22.10496521 C18.99579318 26.41716035 18.98596275 30.72932202 18.97491455 35.04150391 C18.9647008 39.43847196 18.96012099 43.83544539 18.95507812 48.23242188 C18.94434049 56.86590252 18.92674356 65.49934949 18.90625 74.1328125 C10.65625 74.1328125 2.40625 74.1328125 -6.09375 74.1328125 C-6.11630226 64.63206614 -6.1346658 55.13133743 -6.14556217 45.63057041 C-6.15079069 41.21944246 -6.15788777 36.8083337 -6.16918945 32.3972168 C-6.18001944 28.14380135 -6.18602707 23.89040441 -6.18862724 19.63697624 C-6.19048129 18.01059617 -6.19410152 16.38421716 -6.19948006 14.75784492 C-6.20669198 12.48771057 -6.20774088 10.21765365 -6.20727539 7.94750977 C-6.209496 6.65289322 -6.21171661 5.35827667 -6.21400452 4.02442932 C-6.01432458 -0.7770357 -4.32896775 0.00512911 0 0 Z " fill="#FDD302" transform="translate(439.09375,135.8671875)"/>
<path d="M0 0 C1.05692047 0.00424484 1.05692047 0.00424484 2.13519287 0.00857544 C4.3767626 0.01973449 6.61792686 0.04483057 8.859375 0.0703125 C10.38280671 0.08034786 11.90624471 0.08947274 13.4296875 0.09765625 C17.15638086 0.11965959 20.88283833 0.15415978 24.609375 0.1953125 C23.81273437 0.81921875 23.01609375 1.443125 22.1953125 2.0859375 C19.05106163 4.61321165 19.05106163 4.61321165 17.609375 8.1953125 C17.54858859 16.66488557 22.1686433 23.14459021 26.359375 30.1953125 C27.08454978 31.4393959 27.80851787 32.68418349 28.53125 33.9296875 C29.91609685 36.30980096 31.3150997 38.6804438 32.72973633 41.04296875 C33.8699947 42.95529712 34.99432602 44.8774109 36.08862305 46.81640625 C38.12204106 50.69095858 38.12204106 50.69095858 41.67602539 52.89453125 C44.15336936 53.27689378 44.15336936 53.27689378 47.609375 53.1953125 C47.609375 53.5253125 47.609375 53.8553125 47.609375 54.1953125 C42.20223439 54.51834939 36.80076462 54.7532261 31.38623047 54.90942383 C29.54832133 54.97454405 27.71107941 55.06308359 25.87548828 55.17602539 C13.84685346 55.89722135 13.84685346 55.89722135 8.609375 54.1953125 C5.00761463 50.94702276 3.26258685 47.48394375 1.42041016 43.03286743 C0.08997837 40.01852031 -1.7016208 37.30408483 -3.453125 34.51953125 C-4.76754968 32.30843469 -6.08005266 30.09619461 -7.390625 27.8828125 C-8.06996094 26.76841797 -8.74929687 25.65402344 -9.44921875 24.50585938 C-13.00644724 18.46143391 -15.46635737 14.26091831 -14.390625 7.1953125 C-13.17328473 4.39542988 -12.26650371 2.79108655 -9.74316406 1.07470703 C-6.43560378 -0.1616807 -3.52525484 -0.02797821 0 0 Z " fill="#F9C600" transform="translate(88.390625,245.8046875)"/>
<path d="M0 0 C1.61358398 -0.01836914 1.61358398 -0.01836914 3.25976562 -0.03710938 C4.28650391 -0.03904297 5.31324219 -0.04097656 6.37109375 -0.04296875 C7.79119751 -0.04913208 7.79119751 -0.04913208 9.23999023 -0.05541992 C11.5625 0.1875 11.5625 0.1875 13.5625 2.1875 C13.80300903 4.5539856 13.80300903 4.5539856 13.78955078 7.55517578 C13.78939972 8.67618683 13.78924866 9.79719788 13.78909302 10.95217896 C13.77877045 12.16678802 13.76844788 13.38139709 13.7578125 14.6328125 C13.7549826 15.87296112 13.75215271 17.11310974 13.74923706 18.39083862 C13.73992174 21.68874633 13.7219489 24.98645972 13.6998291 28.28430176 C13.67937474 31.64914526 13.67012671 35.01401804 13.66015625 38.37890625 C13.63976397 44.98192631 13.60061888 51.58446296 13.5625 58.1875 C4.9825 58.1875 -3.5975 58.1875 -12.4375 58.1875 C-12.45844585 50.77965172 -12.4784839 43.37191012 -12.48925018 35.96405792 C-12.49453976 32.51468138 -12.50161301 29.06532925 -12.51293945 25.6159668 C-12.52584235 21.66194957 -12.53072918 17.70794244 -12.53515625 13.75390625 C-12.54031754 12.51226212 -12.54547882 11.27061798 -12.55079651 9.99134827 C-12.55087204 8.85024094 -12.55094757 7.70913361 -12.55102539 6.53344727 C-12.553246 5.523069 -12.55546661 4.51269073 -12.55775452 3.47169495 C-12.26137992 -2.15784286 -4.29437962 0.00256381 0 0 Z " fill="#FC582B" transform="translate(171.4375,151.8125)"/>
<path d="M0 0 C0.88027359 -0.0071553 1.76054718 -0.01431061 2.66749573 -0.02168274 C5.57117949 -0.03856251 8.47331776 -0.01917152 11.37695312 0.00219727 C13.39807259 0.0013685 15.41919198 -0.00109117 17.44030762 -0.00511169 C21.67379065 -0.00796921 25.90674448 0.00672719 30.14013672 0.03417969 C35.56433383 0.06826214 40.98758468 0.06224368 46.41182709 0.04351711 C50.58461379 0.0329442 54.75718064 0.04188765 58.9299469 0.05690193 C60.92980801 0.06208205 62.9296921 0.06160402 64.92955017 0.05535698 C67.72567037 0.04990132 70.52043998 0.07029107 73.31640625 0.09765625 C74.14149185 0.09113037 74.96657745 0.08460449 75.81666565 0.07788086 C79.79527627 0.14402918 81.72437091 0.35667191 85.17150879 2.5372467 C87.15820312 4.63110352 87.15820312 4.63110352 87.78710938 6.66625977 C87.60892811 12.10602902 87.60892811 12.10602902 85.68103027 14.35194397 C81.90515814 16.26644013 78.40872554 16.05731181 74.23046875 16.03515625 C73.32922775 16.0420195 72.42798676 16.04888275 71.49943542 16.05595398 C68.52094766 16.07425265 65.54298502 16.07038046 62.56445312 16.06469727 C60.49466785 16.06925725 58.42488409 16.07456227 56.35510254 16.08058167 C52.01743416 16.08951855 47.67994985 16.08708262 43.34228516 16.07714844 C37.78013853 16.06565198 32.2186261 16.08587791 26.65656281 16.11506557 C22.38262896 16.13339884 18.10884794 16.13314095 13.83488464 16.12742805 C11.78394175 16.12727452 9.7329887 16.13334525 7.68208313 16.14571953 C4.81629458 16.16057515 1.95168869 16.14999282 -0.9140625 16.1328125 C-1.7630159 16.14248047 -2.6119693 16.15214844 -3.48664856 16.16210938 C-7.30144585 16.1141503 -9.22030132 16.08629781 -12.36462402 13.78334045 C-14.41735557 10.79251602 -14.49491898 9.18699055 -13.84179688 5.63110352 C-9.73423995 0.13660436 -6.3924747 -0.09058707 0 0 Z " fill="#D9AC61" transform="translate(165.841796875,29.368896484375)"/>
<path d="M0 0 C0.88027359 -0.0087616 1.76054718 -0.01752319 2.66749573 -0.02655029 C5.57115273 -0.04851908 8.47328121 -0.0340006 11.37695312 -0.01708984 C13.39807426 -0.0204587 15.41919341 -0.0253119 17.44030762 -0.03158569 C21.67378042 -0.03895361 25.90672533 -0.02825392 30.14013672 -0.00488281 C35.56446094 0.02360468 40.98754824 0.00720031 46.41182709 -0.02274513 C50.58462836 -0.04082015 54.75713677 -0.03505909 58.9299469 -0.02210617 C60.92981615 -0.01877273 62.92971206 -0.02285703 64.92955017 -0.03450394 C67.72588436 -0.04721588 70.52022074 -0.02783118 73.31640625 0 C74.14149185 -0.01012115 74.96657745 -0.02024231 75.81666565 -0.03067017 C80.0742588 0.04776383 81.69977783 0.29009768 85.17565918 2.9960022 C87.15820312 5.64697266 87.15820312 5.64697266 87.72070312 8.70947266 C87.00525395 12.44570724 86.22407516 13.40026863 83.15820312 15.64697266 C80.18495455 16.24273618 77.25457241 16.19339328 74.23046875 16.16455078 C73.32922775 16.17156006 72.42798676 16.17856934 71.49943542 16.18579102 C68.52079443 16.2033941 65.54310376 16.19173997 62.56445312 16.17822266 C60.49466774 16.1809169 58.42488359 16.18479876 56.35510254 16.18981934 C52.01737415 16.19571753 47.67997525 16.18714094 43.34228516 16.16845703 C37.78011093 16.14566749 32.2187087 16.15878883 26.65656281 16.18274689 C22.38261084 16.19719608 18.10884211 16.19260287 13.83488464 16.18223572 C11.78394988 16.17956601 9.73299851 16.18284674 7.68208313 16.19215393 C4.81625251 16.2023049 1.95167472 16.18683866 -0.9140625 16.16455078 C-2.1874926 16.17669617 -2.1874926 16.17669617 -3.48664856 16.18908691 C-7.30016973 16.13409849 -9.22213301 16.10106901 -12.36462402 13.79821777 C-14.4178211 10.80809365 -14.4948474 9.20246994 -13.84179688 5.64697266 C-9.73561052 0.15636108 -6.39045092 -0.07839034 0 0 Z " fill="#D9AC62" transform="translate(215.841796875,270.35302734375)"/>
<path d="M0 0 C0.88988113 -0.00700928 1.77976227 -0.01401855 2.6966095 -0.02124023 C5.63798234 -0.03884396 8.57839277 -0.02718801 11.51977539 -0.01367188 C13.56474492 -0.01636634 15.6097132 -0.02024839 17.65467834 -0.02526855 C21.94113357 -0.03116703 26.2272554 -0.02259016 30.51367188 -0.00390625 C36.00624899 0.01886892 41.49804368 0.00577128 46.990592 -0.01819611 C51.21397282 -0.03265684 55.43716846 -0.02804654 59.66055489 -0.01768494 C61.68554337 -0.01501767 63.71054869 -0.01828738 65.7355175 -0.02760315 C68.56762012 -0.03777151 71.39846008 -0.02226289 74.23046875 0 C75.48447983 -0.01214539 75.48447983 -0.01214539 76.76382446 -0.02453613 C80.70810162 0.03285418 82.7473181 0.25814053 86.20411682 2.33117676 C88.17993164 4.51757812 88.17993164 4.51757812 88.74243164 8.01757812 C88.17993164 11.51757812 88.17993164 11.51757812 86.70275879 13.70397949 C82.9791654 16.38077956 79.73425765 16.07790406 75.25219727 16.03515625 C74.35095627 16.04216553 73.44971527 16.0491748 72.52116394 16.05639648 C69.54252295 16.07399957 66.56483227 16.06234544 63.58618164 16.04882812 C61.51639626 16.05152237 59.4466121 16.05540423 57.37683105 16.0604248 C53.03910267 16.06632299 48.70170376 16.05774641 44.36401367 16.0390625 C38.80183944 16.01627296 33.24043722 16.0293943 27.67829132 16.05335236 C23.40433935 16.06780155 19.13057063 16.06320834 14.85661316 16.05284119 C12.80567839 16.05017148 10.75472703 16.05345221 8.70381165 16.0627594 C5.83798102 16.07291037 2.97340324 16.05744413 0.10766602 16.03515625 C-1.16576408 16.04730164 -1.16576408 16.04730164 -2.46492004 16.05969238 C-6.25531713 16.00503739 -8.20400994 15.95976277 -11.34680176 13.70397949 C-13.51395563 10.48781469 -13.36084753 8.30303232 -12.82006836 4.51757812 C-9.51902299 -0.3590644 -5.41268069 -0.05229643 0 0 Z " fill="#D8AA5F" transform="translate(214.820068359375,300.482421875)"/>
<path d="M0 0 C0.99773437 0.02320312 1.99546875 0.04640625 3.0234375 0.0703125 C4.52777344 0.09738281 4.52777344 0.09738281 6.0625 0.125 C6.83335937 0.14820312 7.60421875 0.17140625 8.3984375 0.1953125 C8.0684375 0.8553125 7.7384375 1.5153125 7.3984375 2.1953125 C7.29348725 3.9181954 7.25185906 5.64508702 7.24021912 7.37112427 C7.22553589 9.0160083 7.22553589 9.0160083 7.21055603 10.69412231 C7.20480057 11.90252777 7.1990451 13.11093323 7.19311523 14.35595703 C7.17826584 16.25834137 7.17826584 16.25834137 7.16311646 18.19915771 C7.13603929 21.682379 7.11504499 25.16561387 7.09511447 28.64888239 C7.07327223 32.28709557 7.04587494 35.92526674 7.01905823 39.56344604 C6.96910747 46.45530371 6.9241775 53.34718466 6.88103586 60.23908794 C6.83168383 68.08423644 6.77675817 75.92934279 6.72135627 83.77445054 C6.60749965 99.91469927 6.50086635 116.05498716 6.3984375 132.1953125 C2.7684375 132.1953125 -0.8615625 132.1953125 -4.6015625 132.1953125 C-4.64781569 115.27996656 -4.68352875 98.36464578 -4.70518684 81.44925117 C-4.71550934 73.59554011 -4.72958821 65.74186901 -4.75244141 57.88818359 C-4.77234556 51.04471335 -4.78527185 44.20127204 -4.78973949 37.35777366 C-4.79235193 33.73256022 -4.79851237 30.10742955 -4.81302261 26.48224258 C-4.82907123 22.44010968 -4.82954411 18.39812166 -4.82861328 14.35595703 C-4.83580383 13.14755157 -4.84299438 11.93914612 -4.85040283 10.69412231 C-4.8476535 9.59753296 -4.84490417 8.5009436 -4.84207153 7.37112427 C-4.84391512 6.41430315 -4.84575871 5.45748203 -4.84765816 4.47166634 C-4.47510463 1.02559309 -3.40141246 0.2553613 0 0 Z " fill="#0ED290" transform="translate(327.6015625,77.8046875)"/>
<path d="M0 0 C0.88068649 0.00007553 1.76137299 0.00015106 2.66874695 0.00022888 C3.61570938 0.00539017 4.56267181 0.01055145 5.53833008 0.01586914 C6.51071121 0.01728409 7.48309235 0.01869904 8.48493958 0.02015686 C11.59261137 0.02575722 14.70021129 0.03830977 17.80786133 0.05102539 C19.91398008 0.05604034 22.02009996 0.06060326 24.1262207 0.06469727 C29.29096197 0.07572677 34.45564946 0.09299164 39.62036133 0.11352539 C38.71157227 0.78061523 38.71157227 0.78061523 37.78442383 1.46118164 C33.28591473 4.89596386 29.2048015 8.43698899 28.28442383 14.22680664 C28.18066019 20.06869941 29.12227972 23.38638808 32.62036133 28.11352539 C35.22060182 29.97662861 35.22060182 29.97662861 37.62036133 31.11352539 C37.62036133 31.44352539 37.62036133 31.77352539 37.62036133 32.11352539 C31.46399602 32.21261261 25.30809783 32.28509792 19.15112305 32.33325195 C17.0579418 32.35333198 14.96481641 32.3806018 12.87182617 32.4152832 C9.85817664 32.46395973 6.84527059 32.48653051 3.83129883 32.50415039 C2.89982025 32.52479553 1.96834167 32.54544067 1.00863647 32.56671143 C-4.78694865 32.56870014 -7.93150293 31.9064819 -12.37963867 28.11352539 C-15.1638582 24.56997327 -16.61791821 20.54389333 -16.87963867 16.05102539 C-16.13926925 10.22061617 -14.20031257 6.80097925 -9.81713867 2.73852539 C-6.46210879 0.5018388 -3.93858741 -0.01128535 0 0 Z " fill="#02C0F9" transform="translate(269.379638671875,429.886474609375)"/>
<path d="M0 0 C1.02609375 0.01675781 2.0521875 0.03351563 3.109375 0.05078125 C11.41035699 0.34248242 19.70559773 0.74923479 28 1.1875 C27.18789062 1.93902344 26.37578125 2.69054687 25.5390625 3.46484375 C21.75153143 8.02460289 22.26792044 13.07835242 22.375 18.75 C22.35566406 19.77802734 22.33632812 20.80605469 22.31640625 21.86523438 C22.34545537 26.34751285 22.55994881 29.38650794 24.73828125 33.3515625 C29.88905391 36.25079981 34.99825454 35.97068448 40.8125 36 C41.98232422 36.02513672 43.15214844 36.05027344 44.35742188 36.07617188 C47.2386193 36.13497182 50.11829983 36.17130532 53 36.1875 C53 36.5175 53 36.8475 53 37.1875 C45.39377988 37.25709844 37.7875929 37.31036116 30.18112659 37.34293652 C26.64887534 37.35857343 23.11684241 37.37977501 19.5847168 37.41381836 C15.52130063 37.45273603 11.45811279 37.46722547 7.39453125 37.48046875 C5.49741142 37.50369453 5.49741142 37.50369453 3.56196594 37.52738953 C2.38111923 37.52761612 1.20027252 37.52784271 -0.01635742 37.52807617 C-1.05338303 37.53473801 -2.09040863 37.54139984 -3.15885925 37.54826355 C-7.37134388 37.01336893 -10.01075112 35.31528701 -12.78515625 32.15234375 C-14.6061212 27.70825244 -14.47365797 23.50641681 -14.4375 18.75 C-14.45748047 17.82123047 -14.47746094 16.89246094 -14.49804688 15.93554688 C-14.49399232 10.23889673 -14.04323757 6.54866736 -10 2.1875 C-6.62099217 0.29763825 -3.83195561 -0.06272546 0 0 Z " fill="#12D28D" transform="translate(90,298.8125)"/>
<path d="M0 0 C0.78419815 -0.00700928 1.5683963 -0.01401855 2.37635803 -0.02124023 C4.96545955 -0.03882832 7.55346573 -0.02719518 10.14257812 -0.01367188 C11.94332082 -0.01636657 13.74406209 -0.0202488 15.5447998 -0.02526855 C19.31760521 -0.03116468 23.09003164 -0.02259707 26.86279297 -0.00390625 C31.69859736 0.01888351 36.53351377 0.00576102 41.36928558 -0.01819611 C45.08736867 -0.03265106 48.80524126 -0.02804952 52.52333069 -0.01768494 C54.30632126 -0.01501681 56.08933095 -0.01829045 57.87229919 -0.02760315 C60.36459969 -0.03776399 62.85546281 -0.02227559 65.34765625 0 C66.08440079 -0.00809692 66.82114532 -0.01619385 67.58021545 -0.02453613 C71.00227263 0.03212086 72.8604988 0.28152516 75.62780762 2.36633301 C77.17382812 4.51757812 77.17382812 4.51757812 77.73632812 7.45507812 C76.97098587 11.62194151 75.46590497 12.89602939 72.17382812 15.51757812 C69.38694972 16.00841028 67.21240507 16.19425813 64.43359375 16.14868164 C63.67036301 16.15583694 62.90713226 16.16299225 62.12077332 16.17036438 C59.60659289 16.18722547 57.09420225 16.16786587 54.58007812 16.14648438 C52.82800143 16.14731332 51.07592482 16.14977367 49.32385254 16.15379333 C45.65527891 16.15664954 41.98731641 16.14196786 38.31884766 16.11450195 C33.62101402 16.08041913 28.92427297 16.08643886 24.22638702 16.10516453 C20.6094658 16.115743 16.99279795 16.10678906 13.37590027 16.09177971 C11.64398451 16.08660364 9.91204222 16.08707273 8.18013 16.09332466 C5.75753059 16.09878728 3.33648478 16.0783704 0.9140625 16.05102539 C0.20118576 16.05755127 -0.51169098 16.06407715 -1.24617004 16.07080078 C-4.76041681 16.00349315 -6.75703931 15.5601227 -9.77478027 13.70298767 C-11.82617188 11.51757812 -11.82617188 11.51757812 -12.38867188 8.01757812 C-11.19988827 0.62070234 -6.70647687 -0.0737051 0 0 Z " fill="#D8AB60" transform="translate(225.826171875,330.482421875)"/>
<path d="M0 0 C3.63 0 7.26 0 11 0 C10.67 35.97 10.34 71.94 10 109 C6.37 109 2.74 109 -1 109 C-1.02312023 94.93582285 -1.04091345 80.87165018 -1.05181217 66.80745792 C-1.0570417 60.27763767 -1.06414061 53.74783037 -1.07543945 47.21801758 C-1.08626585 40.92218841 -1.09227631 34.62637174 -1.09487724 28.33053398 C-1.09673194 25.92265056 -1.1003534 23.51476786 -1.10573006 21.10688972 C-1.1129372 17.74710714 -1.11399108 14.3873769 -1.11352539 11.02758789 C-1.11712067 10.02130341 -1.12071594 9.01501892 -1.12442017 7.97824097 C-1.1230455 7.06813766 -1.12167084 6.15803436 -1.12025452 5.22035217 C-1.12163721 4.02709116 -1.12163721 4.02709116 -1.12304783 2.80972385 C-1 1 -1 1 0 0 Z " fill="#04C1F9" transform="translate(269,101)"/>
<path d="M0 0 C3.3 0 6.6 0 10 0 C9.67 34.32 9.34 68.64 9 104 C5.37 104 1.74 104 -2 104 C-2.04626195 90.73540791 -2.08183788 77.47083488 -2.10362434 64.20617867 C-2.1140787 58.04741703 -2.12826797 51.88871043 -2.15087891 45.72998047 C-2.17254846 39.79075451 -2.18455617 33.85158161 -2.18975449 27.91231918 C-2.19346086 25.64201903 -2.20069805 23.37172191 -2.21146011 21.10144424 C-2.22589677 17.93100876 -2.22798123 14.76079489 -2.22705078 11.59033203 C-2.23424133 10.64374725 -2.24143188 9.69716248 -2.24884033 8.72189331 C-2.246091 7.86090027 -2.24334167 6.99990723 -2.24050903 6.11282349 C-2.24235262 5.362484 -2.24419621 4.61214451 -2.24609566 3.83906746 C-2 2 -2 2 0 0 Z " fill="#01BFF9" transform="translate(380,106)"/>
<path d="M0 0 C3.63 0 7.26 0 11 0 C10.67 27.39 10.34 54.78 10 83 C14.62 83 19.24 83 24 83 C24 83.33 24 83.66 24 84 C15.42 84 6.84 84 -2 84 C-2.04512411 73.34307264 -2.08184293 62.68620838 -2.10362434 52.02920723 C-2.11407654 47.08112168 -2.12826183 42.13310468 -2.15087891 37.18505859 C-2.17255623 32.41292519 -2.1845578 27.64085787 -2.18975449 22.86867905 C-2.19345946 21.0449507 -2.200694 19.22122611 -2.21146011 17.39752579 C-2.22590721 14.84973488 -2.22798081 12.30221958 -2.22705078 9.75439453 C-2.23424133 8.99482452 -2.24143188 8.23525452 -2.24884033 7.45266724 C-2.22810432 2.22810432 -2.22810432 2.22810432 0 0 Z " fill="#FAC707" transform="translate(215,126)"/>
<path d="M0 0 C11.154629 -0.45970592 22.77588056 1.87609678 32.09765625 8.2421875 C32.09765625 8.5721875 32.09765625 8.9021875 32.09765625 9.2421875 C31.081875 9.32855469 30.06609375 9.41492188 29.01953125 9.50390625 C12.15132409 11.13784019 -1.51184656 17.16024345 -12.5625 30.48046875 C-13.73612145 32.02362698 -14.8269226 33.62905577 -15.90234375 35.2421875 C-21.84234375 29.3021875 -27.78234375 23.3621875 -33.90234375 17.2421875 C-29.09209868 11.63023491 -26.37733232 8.84735722 -20.08984375 5.9296875 C-19.37916748 5.59066406 -18.66849121 5.25164062 -17.9362793 4.90234375 C-11.90150325 2.09848759 -6.62895876 0.55315672 0 0 Z " fill="#EE4627" transform="translate(383.90234375,268.7578125)"/>
<path d="M0 0 C1.20184937 -0.0038269 2.40369873 -0.00765381 3.64196777 -0.01159668 C6.18042845 -0.01431602 8.71891714 -0.00695346 11.25732422 0.00976562 C15.14223724 0.03117279 19.02530074 0.0099624 22.91015625 -0.015625 C25.37760825 -0.01298173 27.8450591 -0.00785678 30.3125 0 C32.05484924 -0.01214539 32.05484924 -0.01214539 33.83239746 -0.02453613 C41.83077155 0.06844404 41.83077155 0.06844404 45.89257812 2.34570312 C47.65625 4.53125 47.65625 4.53125 48.21875 8.03125 C47.56399337 12.10529126 46.84998196 13.03544384 43.65625 15.53125 C41.00024414 16.0459137 41.00024414 16.0459137 37.94140625 16.06469727 C36.79341553 16.0805336 35.6454248 16.09636993 34.46264648 16.11268616 C32.60941772 16.10524635 32.60941772 16.10524635 30.71875 16.09765625 C29.44652588 16.10385483 28.17430176 16.11005341 26.86352539 16.11643982 C24.1731074 16.12354538 21.48418326 16.12229475 18.79394531 16.10766602 C15.35011568 16.09047027 11.9079533 16.11398269 8.46430969 16.14915562 C5.17410299 16.17642009 1.88403782 16.16639417 -1.40625 16.16015625 C-3.25947876 16.18004356 -3.25947876 16.18004356 -5.15014648 16.20033264 C-6.29813721 16.18779953 -7.44612793 16.17526642 -8.62890625 16.16235352 C-9.63832275 16.16139175 -10.64773926 16.16042999 -11.68774414 16.15943909 C-15.3398895 15.29564662 -16.4004133 13.66088284 -18.34375 10.53125 C-18.41861931 6.86265395 -17.89915442 5.19664746 -15.54882812 2.38085938 C-10.55259547 -0.50240225 -5.6696906 -0.03952169 0 0 Z " fill="#D8AB61" transform="translate(255.34375,359.46875)"/>
<path d="M0 0 C1.70289185 -0.00361794 1.70289185 -0.00361794 3.44018555 -0.00730896 C5.83743792 -0.00633063 8.23471292 0.00705929 10.63183594 0.03198242 C14.29960945 0.06628569 17.96497311 0.05263962 21.6328125 0.03320312 C23.96355192 0.04010171 26.29428512 0.04977419 28.625 0.0625 C29.72094482 0.05754013 30.81688965 0.05258026 31.94604492 0.04747009 C39.53579315 0.16478234 39.53579315 0.16478234 43.50585938 2.53710938 C45.4823384 4.82555157 45.95026242 5.71229388 45.8125 8.69140625 C45.3125 12.62890625 45.3125 12.62890625 44.11412048 14.3497467 C41.65672233 16.09451167 39.98821242 16.01603621 36.98657227 16.03295898 C35.89856827 16.04564316 34.81056427 16.05832733 33.68959045 16.07139587 C32.51456467 16.06846024 31.33953888 16.0655246 30.12890625 16.0625 C28.31832985 16.07036278 28.31832985 16.07036278 26.47117615 16.0783844 C23.91658295 16.08481259 21.36196017 16.08345737 18.80737305 16.07495117 C14.89383311 16.06644717 10.98175479 16.09518495 7.06835938 16.12695312 C4.58854211 16.12856529 2.10872224 16.12798732 -0.37109375 16.125 C-2.13059608 16.14185097 -2.13059608 16.14185097 -3.92564392 16.15904236 C-5.01680008 16.14966141 -6.10795624 16.14028046 -7.23217773 16.13061523 C-8.19131577 16.13044907 -9.1504538 16.1302829 -10.13865662 16.13011169 C-13.44095095 15.48074739 -14.630098 14.24254113 -16.6875 11.62890625 C-17.25 8.69140625 -17.25 8.69140625 -16.6875 5.62890625 C-12.33252003 -0.77100547 -7.06318684 -0.08544701 0 0 Z " fill="#D9AC62" transform="translate(419.6875,29.37109375)"/>
<path d="M0 0 C1.60186157 -0.01407143 1.60186157 -0.01407143 3.23608398 -0.02842712 C4.95807007 -0.01157616 4.95807007 -0.01157616 6.71484375 0.00561523 C7.89828369 0.00416 9.08172363 0.00270477 10.30102539 0.00120544 C12.80259666 0.0028651 15.30417807 0.01443369 17.80566406 0.03515625 C21.63781037 0.06409922 25.46857278 0.0557677 29.30078125 0.04272461 C31.73047548 0.04896224 34.16016534 0.05735338 36.58984375 0.06811523 C38.31182983 0.06371178 38.31182983 0.06371178 40.06860352 0.05921936 C41.13651123 0.07190353 42.20441895 0.08458771 43.3046875 0.09765625 C44.24304443 0.10305923 45.18140137 0.10846222 46.14819336 0.11402893 C49.15105317 0.57891668 50.52236785 1.34679751 52.65234375 3.50170898 C53.43389715 8.97258277 53.43389715 8.97258277 52.65234375 11.50170898 C50.43689852 14.06371934 48.59898178 15.35206515 45.22364807 15.88563538 C42.1309635 16.04886063 39.06185948 16.08213126 35.96484375 16.06811523 C34.2619519 16.0774131 34.2619519 16.0774131 32.5246582 16.0868988 C30.12745012 16.09399412 27.73019274 16.09082809 25.33300781 16.078125 C21.66509394 16.06425719 17.99972982 16.09834117 14.33203125 16.13647461 C12.00130146 16.13742579 9.67056847 16.13556705 7.33984375 16.13061523 C6.24389893 16.14387344 5.1479541 16.15713165 4.01879883 16.17079163 C-3.56331064 16.0780424 -3.56331064 16.0780424 -7.54296875 13.15380859 C-9.34765625 10.50170898 -9.34765625 10.50170898 -9.91015625 7.43920898 C-8.82159965 1.7545245 -5.51338266 0.00097633 0 0 Z " fill="#D8AB61" transform="translate(412.34765625,57.498291015625)"/>
<path d="M0 0 C1.51400391 0.01740234 1.51400391 0.01740234 3.05859375 0.03515625 C4.07050781 0.04417969 5.08242188 0.05320313 6.125 0.0625 C7.29869141 0.07990234 7.29869141 0.07990234 8.49609375 0.09765625 C8.16609375 0.75765625 7.83609375 1.41765625 7.49609375 2.09765625 C7.37505694 4.34364841 7.31858695 6.59320601 7.29077148 8.84228516 C7.27592209 9.8814785 7.27592209 9.8814785 7.26077271 10.94166565 C7.22913878 13.23581503 7.20439289 15.52998514 7.1796875 17.82421875 C7.1591196 19.41320337 7.13812317 21.00218249 7.11671448 22.59115601 C7.06147684 26.7766882 7.01207506 30.96226991 6.96386719 35.14788818 C6.91366449 39.41764745 6.85797201 43.68733467 6.80273438 47.95703125 C6.6951321 56.33718037 6.59419895 64.71739056 6.49609375 73.09765625 C11.44609375 73.09765625 16.39609375 73.09765625 21.49609375 73.09765625 C21.49609375 73.42765625 21.49609375 73.75765625 21.49609375 74.09765625 C13.24609375 74.09765625 4.99609375 74.09765625 -3.50390625 74.09765625 C-3.52645851 64.59690989 -3.54482205 55.09618118 -3.55571842 45.59541416 C-3.56094694 41.18428621 -3.56804402 36.77317745 -3.5793457 32.36206055 C-3.59017569 28.1086451 -3.59618332 23.85524816 -3.59878349 19.60181999 C-3.60063754 17.97543992 -3.60425777 16.34906091 -3.60963631 14.72268867 C-3.61684823 12.45255432 -3.61789713 10.1824974 -3.61743164 7.91235352 C-3.61965225 6.61773697 -3.62187286 5.32312042 -3.62416077 3.98927307 C-3.463876 0.13509657 -3.463876 0.13509657 0 0 Z " fill="#F9C600" transform="translate(436.50390625,135.90234375)"/>
<path d="M0 0 C3.3 0 6.6 0 10 0 C9.67 19.14 9.34 38.28 9 58 C5.7 58 2.4 58 -1 58 C-1.02312883 50.58540058 -1.04091785 43.17080889 -1.05181217 35.75618076 C-1.05703982 32.31359652 -1.06413531 28.87103688 -1.07543945 25.4284668 C-1.08834235 21.47444957 -1.09322918 17.52044244 -1.09765625 13.56640625 C-1.10281754 12.32476212 -1.10797882 11.08311798 -1.11329651 9.80384827 C-1.11337204 8.66274094 -1.11344757 7.52163361 -1.11352539 6.34594727 C-1.115746 5.335569 -1.11796661 4.32519073 -1.12025452 3.28419495 C-1 1 -1 1 0 0 Z " fill="#EE4424" transform="translate(160,152)"/>
</svg>
