<?xml version="1.0" encoding="UTF-8"?>
<svg version="1.1" xmlns="http://www.w3.org/2000/svg" width="512" height="512">
<path d="M0 0 C0.91845703 0.16097168 1.83691406 0.32194336 2.78320312 0.48779297 C60.6311192 10.89202252 115.86977615 43.39532594 152 90 C152.77472656 90.95777344 153.54945313 91.91554688 154.34765625 92.90234375 C195.14812086 144.17772955 212.97654877 211.49628678 205.75390625 276.37109375 C200.93925151 314.50234665 188.41403683 351.87894476 167 384 C166.90109374 386.01925718 166.90109374 386.01925718 168 388 C170.49190654 390.16119494 170.49190654 390.16119494 173.5 392.125 C178.90998043 395.81996086 178.90998043 395.81996086 180 398 C179.83564453 399.86978516 179.83564453 399.86978516 179.66796875 401.77734375 C179.63791666 404.28527545 179.6796332 405.55894248 181.16650391 407.60595703 C182.8103401 409.06799587 184.49641067 410.32153779 186.3125 411.5625 C186.90740234 412.01173828 187.50230469 412.46097656 188.11523438 412.92382812 C190.04005261 414.36590357 190.04005261 414.36590357 193 416 C193.99 415.67 194.98 415.34 196 415 C201.55913493 414.23322277 204.22111442 414.73207252 208.75 418.125 C213.18456275 421.90202414 216.13652156 425.40956469 218 431 C218.61301462 438.90889355 219.16701642 446.54844598 214 453 C208.73725461 458.6322573 204.10158059 461.80706165 196.18530273 462.17944336 C194.76789817 462.15906879 193.35061103 462.12873915 191.93359375 462.08984375 C190.38086237 462.06943198 188.82812787 462.04925679 187.27539062 462.02929688 C184.8505265 461.98576295 182.42588121 461.93724268 180.0012207 461.88354492 C177.64535289 461.83516443 175.28977876 461.8053732 172.93359375 461.77734375 C172.21264023 461.75558578 171.49168671 461.73382782 170.74888611 461.71141052 C166.28851161 461.66764418 163.53954213 462.25126717 160 465 C157.95609586 467.66324949 157.95609586 467.66324949 156.1875 470.8125 C155.84912109 471.37855957 155.51074219 471.94461914 155.16210938 472.52783203 C153.3656684 475.55538297 151.65409877 478.62154755 149.98828125 481.72265625 C145.35673396 490.28045635 140.73271733 497.85624617 131 501 C122.48171291 502.06059931 114.9161318 501.37782401 108 496 C100.2507494 487.52576753 99.67467298 477.45945261 98.875 466.5 C98.78863281 465.39140625 98.70226562 464.2828125 98.61328125 463.140625 C98.40277926 460.42748819 98.19851016 457.71403606 98 455 C96.92105469 455.67804688 95.84210938 456.35609375 94.73046875 457.0546875 C62.88753083 476.90305675 29.30649539 490.5827183 -8 496 C-8.78665039 496.11714355 -9.57330078 496.23428711 -10.38378906 496.35498047 C-73.04994373 505.26379375 -140.2170155 488.75716939 -191 451 C-191.60247559 450.55301758 -192.20495117 450.10603516 -192.82568359 449.64550781 C-201.73016189 442.976152 -210.00188656 435.72583724 -218 428 C-218.93126709 427.101604 -218.93126709 427.101604 -219.88134766 426.18505859 C-227.78049083 418.5231863 -235.35415778 410.79696661 -242 402 C-242.47614746 401.37851074 -242.95229492 400.75702148 -243.44287109 400.11669922 C-270.48758153 364.6378774 -287.33035199 323.2270207 -293 279 C-293.13038162 277.99232574 -293.13038162 277.99232574 -293.26339722 276.96429443 C-293.93686703 271.38567795 -294.18818358 265.8781204 -294.23828125 260.26171875 C-294.24802979 259.35105652 -294.25777832 258.44039429 -294.26782227 257.50213623 C-294.44193584 237.00940354 -294.19138329 217.15009225 -290 197 C-289.81276367 196.0915332 -289.62552734 195.18306641 -289.43261719 194.24707031 C-284.33899558 170.41525522 -275.39401846 148.07219769 -264.1875 126.5 C-263.82672363 125.7997168 -263.46594727 125.09943359 -263.09423828 124.37792969 C-261.14640226 120.72471936 -259.29748668 117.55816923 -256 115 C-254.1746875 115.0309375 -254.1746875 115.0309375 -252.3125 115.0625 C-248.84872251 114.80108283 -247.94883162 113.94804923 -245.4453125 111.40625 C-240.70570995 105.44753342 -240.70570995 105.44753342 -238.9375 98.265625 C-239.1025 97.45609375 -239.2675 96.6465625 -239.4375 95.8125 C-240.05254248 92.78571612 -240.25934758 91.51254114 -238.84765625 88.72265625 C-237.1459561 86.56045374 -235.37037998 84.52585173 -233.46777344 82.53857422 C-231.77326423 80.76232721 -230.12604038 78.94703069 -228.4765625 77.12890625 C-207.93974829 54.66098693 -183.88684874 37.13022748 -157 23 C-156.3493457 22.65227539 -155.69869141 22.30455078 -155.02832031 21.94628906 C-134.51207041 11.11210248 -110.77092927 4.07346624 -88 0 C-86.70255859 -0.24121582 -86.70255859 -0.24121582 -85.37890625 -0.48730469 C-57.89975537 -5.37988478 -27.42075753 -5.02780459 0 0 Z " fill="#010203" transform="translate(294,7)"/>
<path d="M0 0 C1.05425842 -0.00384115 2.10851683 -0.00768229 3.19472247 -0.01163983 C4.35695762 -0.01077335 5.51919276 -0.00990687 6.71664715 -0.00901413 C7.94820984 -0.01198525 9.17977253 -0.01495637 10.44865531 -0.01801753 C13.87358425 -0.0252062 17.29846304 -0.0278775 20.72339594 -0.028615 C24.41470473 -0.03046431 28.10600261 -0.03801101 31.79730511 -0.04475021 C39.87165148 -0.05833897 47.94599288 -0.06435905 56.02034879 -0.06876087 C61.06061264 -0.07152229 66.10087457 -0.07575945 71.14113712 -0.08026505 C85.09223116 -0.09245825 99.04332366 -0.10275757 112.99442291 -0.10614014 C113.88752678 -0.1063597 114.78063064 -0.10657927 115.70079825 -0.10680549 C117.04368411 -0.10713291 117.04368411 -0.10713291 118.41369897 -0.10746694 C120.22787241 -0.1079104 122.04204585 -0.10835697 123.85621929 -0.10880661 C124.75611459 -0.10902804 125.65600988 -0.10924947 126.58317473 -0.10947761 C141.16743738 -0.11342633 155.75165008 -0.13088237 170.33589343 -0.15416613 C185.30416363 -0.1778704 200.27240876 -0.19034156 215.24069804 -0.19150805 C223.64693209 -0.19242532 232.05310106 -0.19819055 240.45931721 -0.21632767 C247.61689498 -0.23171617 254.77438757 -0.23685652 261.93197874 -0.22858956 C265.58436269 -0.22467864 269.23657503 -0.22563404 272.88893795 -0.23964691 C276.847614 -0.25469622 280.80604757 -0.24653239 284.76474285 -0.23606491 C285.92028583 -0.24412132 287.07582881 -0.25217772 288.26638824 -0.26047826 C295.56622486 -0.21518533 300.07044677 0.59578631 305.68117046 5.56892776 C308.80343319 9.12483809 310.17871331 11.69840344 310.19186687 16.44438553 C310.19895168 17.29945694 310.20603649 18.15452835 310.21333599 19.03551102 C310.21085857 19.96547897 310.20838116 20.89544693 310.20582867 21.85359573 C310.21349506 23.33231155 310.21349506 23.33231155 310.22131634 24.84090042 C310.2352238 28.10186702 310.23425456 31.36262252 310.23195171 34.62361526 C310.23583824 36.89039056 310.24017282 39.15716513 310.24493694 41.42393875 C310.25240182 46.17688227 310.25210609 50.92975151 310.24684429 55.6826973 C310.24105192 61.77139726 310.25797398 67.85979282 310.28118896 73.94844246 C310.29592685 78.63076427 310.29679787 83.3130128 310.29367924 87.9953537 C310.2941925 90.24001671 310.29943124 92.48468382 310.30949116 94.72932434 C310.32183785 97.86990709 310.31507393 101.00989735 310.30348492 104.15047073 C310.31112865 105.07639023 310.31877239 106.00230972 310.32664776 106.95628738 C310.28470874 112.10253259 309.81896622 115.68913572 306.93117046 120.13142776 C301.8787111 124.96421498 297.66318568 127.37778486 290.65306664 127.38869667 C289.07800615 127.39837001 289.07800615 127.39837001 287.47112626 127.40823877 C286.32386293 127.40514156 285.17659961 127.40204436 283.99457073 127.3988533 C282.15903077 127.40564997 282.15903077 127.40564997 280.2864092 127.41258395 C276.89260849 127.42305673 273.49901965 127.42455337 270.10521781 127.4221952 C266.44388967 127.42178706 262.78259313 127.43282589 259.12127972 127.44231033 C251.94903039 127.45892206 244.77681394 127.46441996 237.60454699 127.46553509 C231.77425669 127.4664855 225.94397724 127.47059543 220.11369038 127.47693634 C203.5824924 127.49454935 187.05132038 127.50377514 170.52011295 127.50227539 C169.62894308 127.50219548 168.73777322 127.50211557 167.8195982 127.50203323 C166.48121054 127.50191059 166.48121054 127.50191059 165.11578474 127.50178547 C150.65584269 127.50097259 136.19600481 127.52011062 121.73609289 127.54830997 C106.88752559 127.57703868 92.03900909 127.59085026 77.1904133 127.58912241 C68.85455127 127.5884585 60.51879845 127.59395138 52.18296146 127.61547852 C45.0854852 127.63369017 37.98816764 127.63803784 30.89067813 127.62445967 C27.27038981 127.61792982 23.65040595 127.61781301 20.0301466 127.63516617 C16.10286383 127.65379714 12.17602554 127.64134262 8.24872112 127.62590408 C6.53786438 127.64133477 6.53786438 127.64133477 4.79244488 127.65707719 C-1.95821534 127.5983836 -6.32112311 126.74709535 -12.06882954 123.13142776 C-15.86811518 119.13217972 -18.3110073 115.39807681 -18.33625507 109.81847 C-18.34478504 108.96339859 -18.35331501 108.10832718 -18.36210346 107.22734451 C-18.36119709 106.29737656 -18.36029072 105.3674086 -18.35935688 104.4092598 C-18.3660741 103.42344925 -18.37279133 102.4376387 -18.3797121 101.42195511 C-18.39871996 98.16099898 -18.40261771 94.90024836 -18.40476704 91.63924026 C-18.41119294 89.3724649 -18.41792114 87.10569038 -18.42493916 84.83891678 C-18.43691884 80.0859777 -18.44061925 75.33311135 -18.43943501 70.58015823 C-18.43923176 64.49138417 -18.46653688 58.40307657 -18.50097942 52.31441307 C-18.52322235 47.63208756 -18.52727334 42.94987477 -18.52621555 38.26750183 C-18.52857532 36.02282859 -18.53741992 33.77815242 -18.55288029 31.53353119 C-18.57248722 28.39281722 -18.56672255 25.25311524 -18.55466938 22.1123848 C-18.56590839 21.1864653 -18.57714741 20.26054581 -18.588727 19.30656815 C-18.52395742 12.66119424 -17.15083204 9.30385577 -12.47117329 4.48689651 C-8.19088071 1.07407657 -5.40138327 0.00737428 0 0 Z " fill="#F7F5F6" transform="translate(104.06882953643799,190.86857223510742)"/>
<path d="M0 0 C63.03 0 126.06 0 191 0 C189.7697921 9.22655926 188.52968566 17.96173096 186.375 26.9375 C186.14554688 27.91912109 185.91609375 28.90074219 185.6796875 29.91210938 C185.12611806 32.27631217 184.56627053 34.6388137 184 37 C179.00894287 38.23543671 175.72270984 37.13921336 171 35.4375 C141.933093 25.65202732 112.43819885 23.15333593 82 24 C80.18580566 24.04713135 80.18580566 24.04713135 78.33496094 24.09521484 C77.1802832 24.15016113 76.02560547 24.20510742 74.8359375 24.26171875 C73.80774902 24.30643311 72.77956055 24.35114746 71.72021484 24.3972168 C68.33369885 25.14764832 67.06312204 26.24248085 65 29 C64.91083846 32.62649951 64.91083846 32.62649951 66 36 C69.96258846 38.64172564 73.30389961 38.1967929 77.890625 38.08984375 C79.7229737 38.06681271 81.55533101 38.04445912 83.38769531 38.02270508 C84.34599243 38.00817291 85.30428955 37.99364075 86.29162598 37.97866821 C102.79250492 37.74904488 118.73758923 37.91574968 135 41 C136.39051836 41.24279904 137.78113893 41.4850136 139.171875 41.7265625 C152.84729546 44.26628344 166.00077895 48.1127736 179 53 C177.11699528 61.40757396 174.57139583 69.27965051 171.3125 77.25 C170.87043213 78.33974121 170.42836426 79.42948242 169.97290039 80.55224609 C162.57335157 98.56008021 153.817365 116.19929032 141 131 C140.30261719 131.84175781 139.60523438 132.68351563 138.88671875 133.55078125 C130.11440896 143.8189023 116.83989956 154.69829404 102.84155273 156.23730469 C91.96539932 156.84853759 82.64508982 156.55020701 73 151 C72.12859375 150.55011719 71.2571875 150.10023438 70.359375 149.63671875 C40.07135592 132.50007637 22.39652573 92.58114906 13.0546875 60.78222656 C12.34645907 58.1933869 11.65746471 55.60214219 11 53 C16.75571506 50.34840161 22.58747447 48.56685377 28.6875 46.875 C30.09225586 46.47861328 30.09225586 46.47861328 31.52539062 46.07421875 C35.33963191 45.00154847 39.15189816 43.94507043 43 43 C44.30430008 37.51155012 44.30430008 37.51155012 42.5 32.5 C38.43243754 30.05946252 34.78319069 30.56949612 30.32421875 31.64599609 C27.28197345 32.52757883 24.26547243 33.46837647 21.25 34.4375 C20.20972656 34.76298828 19.16945312 35.08847656 18.09765625 35.42382812 C14.38851121 36.58743443 10.68790195 37.77069935 7 39 C4.63804783 30.87104786 2.64863596 22.78790024 1.25 14.4375 C1.12262451 13.68871582 0.99524902 12.93993164 0.86401367 12.16845703 C0.18904783 7.95973521 0 4.3569396 0 0 Z " fill="#98E5FB" transform="translate(155,333)"/>
<path d="M0 0 C12.42036035 10.0184586 22.1962317 22.08818246 30 36 C30.62044189 37.09151367 30.62044189 37.09151367 31.25341797 38.20507812 C37.1755511 48.72081324 42.20346596 59.4308036 46.5625 70.6875 C46.97999512 71.76153076 47.39749023 72.83556152 47.82763672 73.94213867 C50.18831414 80.22796902 51.93597638 86.36761683 53 93 C-3.51736955 111.70131549 -58.4094696 113.38126382 -115 93 C-113.11699528 84.59242604 -110.57139583 76.72034949 -107.3125 68.75 C-106.87043213 67.66025879 -106.42836426 66.57051758 -105.97290039 65.44775391 C-102.39167746 56.73234842 -98.53716117 48.25790101 -94 40 C-93.66709961 39.38543945 -93.33419922 38.77087891 -92.99121094 38.13769531 C-81.70514141 17.54463007 -65.78709061 -1.97954376 -43 -10 C-27.23987764 -13.95294872 -12.94348086 -9.04362688 0 0 Z " fill="#98E4FA" transform="translate(281,30)"/>
<path d="M0 0 C3.61779583 1.56855484 6.22537284 3.79306124 9.1875 6.375 C26.3981684 20.9539205 45.78935967 32.10455006 66 42 C63 57 60 72 57 87 C55.78006348 87.0093457 54.56012695 87.01869141 53.30322266 87.02832031 C48.73678313 87.06847309 44.17099954 87.13430018 39.60498047 87.20751953 C37.63631679 87.23558339 35.66754349 87.25686979 33.69873047 87.27099609 C30.85327617 87.29262905 28.00911987 87.3393807 25.1640625 87.390625 C23.86343369 87.39246796 23.86343369 87.39246796 22.53652954 87.39434814 C13.92991053 87.59635675 6.15656734 90.24577559 -0.3125 96.0625 C-1.09238281 96.73410156 -1.87226562 97.40570313 -2.67578125 98.09765625 C-11.76608815 109.44908151 -10.77214628 121.79949996 -10.8125 135.6875 C-10.874375 143.050625 -10.93625 150.41375 -11 158 C-29.48 158 -47.96 158 -67 158 C-67 152.46187368 -66.98807769 147.76425149 -66.265625 142.41015625 C-66.10610352 141.22317139 -65.94658203 140.03618652 -65.78222656 138.81323242 C-65.6065918 137.57549072 -65.43095703 136.33774902 -65.25 135.0625 C-65.06663086 133.76997314 -64.88326172 132.47744629 -64.69433594 131.14575195 C-60.37425082 101.52575157 -51.40846937 71.87562712 -35.32739258 46.34448242 C-33.480144 43.08181403 -33.67019459 40.69382058 -34 37 C-34.42410156 36.25363281 -34.84820312 35.50726563 -35.28515625 34.73828125 C-36 32 -36 32 -34.359375 28.44921875 C-33.50981576 27.18151708 -32.63904954 25.9278263 -31.75 24.6875 C-31.3478125 24.04232422 -30.945625 23.39714844 -30.53125 22.73242188 C-29.13992641 20.7523002 -28.00528214 19.3659128 -26 18 C-23.69165039 17.86132812 -23.69165039 17.86132812 -21.14453125 18.07421875 C-17.95713792 18.29618622 -16.50691329 18.33325796 -13.80712891 16.55834961 C-11.71061139 14.50495267 -9.81373306 12.38110758 -7.9375 10.125 C-7.27556641 9.37863281 -6.61363281 8.63226563 -5.93164062 7.86328125 C-2.61123081 4.17678629 -2.61123081 4.17678629 0 0 Z " fill="#61D9F9" transform="translate(82,89)"/>
<path d="M0 0 C22.07986339 8.89327831 41.2789702 50.59400262 50.25927734 70.83886719 C58.22604788 89.57559021 64.04689361 108.6187527 66.70751953 128.81591797 C66.9884949 130.91408631 67.29955463 133.00536614 67.62109375 135.09765625 C68.78473811 142.98636248 69 149.82939786 69 158 C50.52 158 32.04 158 13 158 C12.8125 135.125 12.8125 135.125 12.79223633 127.96533203 C12.76575735 126.06279779 12.73747286 124.16028746 12.70703125 122.2578125 C12.71101929 121.29415771 12.71500732 120.33050293 12.71911621 119.33764648 C12.53761619 110.55660887 9.3947238 102.22189343 3 96 C-5.48353261 90.15383504 -12.53573021 87.71915115 -22.7734375 87.5859375 C-23.6971817 87.56657135 -24.6209259 87.5472052 -25.57266235 87.5272522 C-28.50668264 87.46774295 -31.44074276 87.42118605 -34.375 87.375 C-36.37111032 87.33679383 -38.36720463 87.29774058 -40.36328125 87.2578125 C-45.24205651 87.16206504 -50.12090891 87.07792861 -55 87 C-55.13575439 86.20940186 -55.27150879 85.41880371 -55.41137695 84.60424805 C-56.03960359 80.96436195 -56.67599957 77.32594801 -57.3125 73.6875 C-57.52583984 72.44419922 -57.73917969 71.20089844 -57.95898438 69.91992188 C-59.12991716 63.26133395 -60.55074974 56.82432784 -62.42651367 50.33129883 C-63.12149829 47.50609317 -63.23482029 44.89611689 -63 42 C-62.41734375 41.68885254 -61.8346875 41.37770508 -61.234375 41.05712891 C-39.37421233 29.34939634 -18.14198303 17.13409508 0 0 Z " fill="#98E4FA" transform="translate(416,89)"/>
<path d="M0 0 C18.48 0 36.96 0 56 0 C56.25 21.3125 56.25 21.3125 56.29785156 27.9699707 C56.46868071 40.55630986 56.85379913 51.69507291 66.0078125 61.28125 C73.847398 68.04481396 82.4326655 70.27902686 92.5546875 70.4140625 C93.45623566 70.43342865 94.35778381 70.4527948 95.28665161 70.4727478 C98.14933996 70.53224296 101.01206918 70.57880817 103.875 70.625 C105.82293363 70.66320747 107.77085086 70.7022608 109.71875 70.7421875 C114.47903258 70.83791965 119.2393942 70.92206116 124 71 C131.55497829 107.08903281 131.55497829 107.08903281 133 116 C132.21689453 116.37584229 132.21689453 116.37584229 131.41796875 116.75927734 C109.7053717 127.24007342 87.22134549 139.77865451 70 157 C64.08353175 156.45330375 60.28913567 150.72408018 56.72021484 146.47705078 C53.37921082 142.39468886 50.17580285 138.21148874 47 134 C46.57428711 133.44038574 46.14857422 132.88077148 45.70996094 132.30419922 C23.3964599 102.79420155 8.83349015 67.9008469 2.75 31.5 C2.58661133 30.54061523 2.42322266 29.58123047 2.25488281 28.59277344 C0.75727328 18.99082913 0.51928302 9.8663774 0 0 Z " fill="#61DAFA" transform="translate(15,262)"/>
<path d="M0 0 C18.48 0 36.96 0 56 0 C56 43.08419035 41.88101133 86.178483 18 122 C15.23753658 120.70028485 12.87188866 119.2596925 10.4609375 117.390625 C9.80246826 116.88571533 9.14399902 116.38080566 8.46557617 115.8605957 C7.77568604 115.32909912 7.0857959 114.79760254 6.375 114.25 C-7.75602387 103.11572889 -7.75602387 103.11572889 -25 101 C-32.41665823 103.4865097 -37.47039683 107.16191282 -41.1171875 114.13671875 C-42.33073253 118.07268558 -42.214149 121.72193233 -42.125 125.8125 C-42.11597656 126.60076172 -42.10695313 127.38902344 -42.09765625 128.20117188 C-42.07422504 130.13424666 -42.03835838 132.0671638 -42 134 C-46.05756501 132.5066954 -49.64606292 130.55673242 -53.375 128.375 C-60.81585658 124.05644828 -68.38856393 120.00826325 -76 116 C-75.39596789 110.00374992 -74.55067854 104.15381311 -73.37109375 98.24609375 C-73.21713638 97.45977066 -73.06317902 96.67344757 -72.90455627 95.86329651 C-72.41897058 93.3873412 -71.9283314 90.91242014 -71.4375 88.4375 C-71.10448082 86.74420685 -70.77179556 85.05084798 -70.43945312 83.35742188 C-69.63015446 79.23751272 -68.81632664 75.11852213 -68 71 C-66.26097412 70.97812622 -66.26097412 70.97812622 -64.48681641 70.95581055 C-60.14407045 70.89739701 -55.80181989 70.82017038 -51.45947266 70.73754883 C-49.58781027 70.70450053 -47.71605303 70.6764075 -45.84423828 70.65356445 C-30.23833173 70.45797042 -18.65679467 69.85354001 -7.25 58.1875 C-1.95987568 50.69315721 -0.40145855 44.15606803 -0.390625 35.05859375 C-0.37499512 34.16338013 -0.35936523 33.2681665 -0.34326172 32.3458252 C-0.2911765 29.04331453 -0.27248472 25.74034483 -0.25 22.4375 C-0.1675 15.033125 -0.085 7.62875 0 0 Z " fill="#97E4FA" transform="translate(429,262)"/>
<path d="M0 0 C2.25390625 1.1875 2.25390625 1.1875 4.5625 3 C5.51253906 3.72960937 6.46257812 4.45921875 7.44140625 5.2109375 C7.99070801 5.64245117 8.54000977 6.07396484 9.10595703 6.51855469 C13.93660606 10.29689683 18.84048794 13.98201935 23.72119141 17.6953125 C24.6291748 18.38625 25.5371582 19.0771875 26.47265625 19.7890625 C27.3867627 20.48418945 28.30086914 21.17931641 29.24267578 21.89550781 C31.0705929 23.29064201 32.89454707 24.69098491 34.71435547 26.09667969 C37.27911912 28.07740691 39.85679833 30.04010835 42.4375 32 C43.21158203 32.60537598 43.98566406 33.21075195 44.78320312 33.83447266 C48.02059499 36.27108864 50.17165868 37.87148159 54.22265625 38.5 C57.03878039 38.13741423 57.03878039 38.13741423 59.453125 36.70703125 C60.71382812 36.35705078 60.71382812 36.35705078 62 36 C64.56324151 37.46687873 66.51888249 38.81987916 68.75 40.6875 C69.33910156 41.14833984 69.92820312 41.60917969 70.53515625 42.08398438 C73.29227862 44.29918959 74.86182793 45.58548378 76 49 C75.814375 50.6396875 75.814375 50.6396875 75.625 52.3125 C76.04488202 56.44133991 76.3606113 56.75254159 79.375 59.25 C80.00148438 59.70890625 80.62796875 60.1678125 81.2734375 60.640625 C83.96128265 62.75684697 84.93491911 64.50104654 85.375 67.875 C84.89234764 71.89710299 83.96474585 73.24320053 81 76 C77.93596343 76.46734024 75.41685408 76.6288213 72.359375 76.56640625 C71.51836243 76.57204086 70.67734985 76.57767548 69.81085205 76.58348083 C67.12333486 76.59993038 64.43745977 76.58440995 61.75 76.5625 C59.0769701 76.54584486 56.40504284 76.53691485 53.73199463 76.55223083 C52.07130549 76.56142609 50.41038195 76.55263236 48.74993896 76.52259827 C42.07828433 76.55372798 37.08942243 78.43860259 31.94018555 82.70776367 C27.09685998 88.46630091 23.45903557 94.74714534 19.8125 101.3125 C18.61864794 103.45888002 17.4171287 105.60101802 16.20703125 107.73828125 C15.42549683 109.14654175 15.42549683 109.14654175 14.62817383 110.58325195 C12.947257 113.07828805 11.59451797 114.49450796 9 116 C4.88132061 116 2.80583483 115.80290984 -0.15234375 112.85546875 C-2.34350206 109.46913318 -2.69169989 107.32310809 -3.0625 103.3125 C-3.13355957 102.59376709 -3.20461914 101.87503418 -3.27783203 101.13452148 C-3.53851866 98.42452343 -3.76925254 95.71271108 -4 93 C-4.21416525 90.59889772 -4.42906614 88.19786099 -4.64453125 85.796875 C-5.0186968 81.60886299 -5.3882786 77.42051833 -5.74755859 73.23120117 C-6.47478442 64.77506409 -7.24987899 56.32540594 -8.08203125 47.87890625 C-8.1737561 46.94218582 -8.26548096 46.00546539 -8.35998535 45.0403595 C-8.90498181 39.47663637 -8.90498181 39.47663637 -9.46185303 33.91409302 C-12.20130542 6.83729065 -12.20130542 6.83729065 -8.875 1.75 C-5.47785948 -0.31782467 -3.91532146 -0.37429488 0 0 Z " fill="#017196" transform="translate(412,377)"/>
<path d="M0 0 C0.82387207 0.25168945 1.64774414 0.50337891 2.49658203 0.76269531 C19.17316871 5.82295287 35.68448158 10.64622188 53 13 C54.25119629 13.17442627 55.50239258 13.34885254 56.79150391 13.52856445 C67.0916469 14.89563806 77.24084827 15.36217759 87.625 15.3125 C88.40414764 15.31100952 89.18329529 15.30951904 89.98605347 15.3079834 C103.17742139 15.26289103 116.00543422 14.39259346 129 12 C129.81098145 11.85546387 130.62196289 11.71092773 131.45751953 11.56201172 C145.01769512 9.09279644 159.11576245 6.00139376 171.9140625 0.8203125 C174 0 174 0 177 0 C178.00482861 4.5881574 179.001465 9.17799135 179.99072266 13.76953125 C180.32802238 15.32958288 180.66751193 16.88916278 181.00927734 18.44824219 C181.50161201 20.69604421 181.98591097 22.94545414 182.46875 25.1953125 C182.62186646 25.8861795 182.77498291 26.57704651 182.93273926 27.28884888 C183.80428238 31.39473388 184 34.71157627 184 39 C120.97 39 57.94 39 -7 39 C-7 27.74778034 -7 27.74778034 -5.72265625 22.44140625 C-5.45646484 21.31412109 -5.19027344 20.18683594 -4.91601562 19.02539062 C-4.63435547 17.88263672 -4.35269531 16.73988281 -4.0625 15.5625 C-3.64581055 13.80776367 -3.64581055 13.80776367 -3.22070312 12.01757812 C-1.22576531 3.67729592 -1.22576531 3.67729592 0 0 Z " fill="#98E4FA" transform="translate(162,137)"/>
<path d="M0 0 C3.45112038 2.79591586 4.63411318 5.07330409 5.5859375 9.3671875 C5.8240918 10.42776367 6.06224609 11.48833984 6.30761719 12.58105469 C7.4893519 18.4163907 8.58593923 24.26264479 9.625 30.125 C10.05192825 32.52393019 10.48147625 34.92239613 10.9140625 37.3203125 C11.1917749 38.88676514 11.1917749 38.88676514 11.47509766 40.48486328 C11.88463029 42.98180544 11.88463029 42.98180544 13 45 C13.1451001 44.4738208 13.2902002 43.9476416 13.43969727 43.40551758 C16.3242016 32.99905299 19.33719572 22.64200341 22.6875 12.375 C22.97246338 11.48143799 23.25742676 10.58787598 23.55102539 9.66723633 C23.8268042 8.83603271 24.10258301 8.0048291 24.38671875 7.1484375 C24.62608154 6.41802246 24.86544434 5.68760742 25.11206055 4.93505859 C26.12401452 2.72973904 27.09337937 1.49795607 29 0 C32.71337749 -0.47261168 34.98795062 -0.75825446 38.05224609 1.53759766 C40.56166207 4.71006815 41.60219552 8.01540009 42.7265625 11.8359375 C42.96031586 12.59290924 43.19406921 13.34988098 43.43490601 14.12979126 C44.17680394 16.54141754 44.90121427 18.95788332 45.625 21.375 C46.1186202 22.99254546 46.61340033 24.60973742 47.109375 26.2265625 C48.02244911 29.20536761 48.92758673 32.18637695 49.82666016 35.16943359 C50.82606725 38.46658513 51.89282096 41.73723984 53 45 C53.20157715 43.90534424 53.4031543 42.81068848 53.61083984 41.68286133 C54.36229933 37.60978107 55.12056453 33.53799219 55.88085938 29.46655273 C56.20855583 27.70647952 56.5344222 25.94606452 56.85839844 24.18530273 C57.32522975 21.64995044 57.79869613 19.11591277 58.2734375 16.58203125 C58.41623138 15.79850784 58.55902527 15.01498444 58.70614624 14.2077179 C59.58968317 9.53493826 60.50435487 5.16868543 63.25 1.1875 C65.95841194 -0.65035096 67.80304808 -0.44757327 71 0 C73.875 1.5 73.875 1.5 76 4 C76.70581891 11.61839007 74.82890827 18.95693644 73.296875 26.38671875 C73.01471998 27.77572657 72.73284408 29.16479112 72.45123291 30.5539093 C71.86150956 33.45222029 71.26550506 36.3491566 70.66552734 39.24536133 C69.89951937 42.94768225 69.15391397 46.65378953 68.41349411 50.36130047 C67.83821356 53.22615533 67.24988957 56.08821649 66.65787506 58.94965553 C66.37746325 60.31500806 66.10159388 61.68130205 65.83046722 63.04852867 C65.44975394 64.96048979 65.04899619 66.86842618 64.64746094 68.77612305 C64.42539978 69.86007858 64.20333862 70.94403412 63.97454834 72.06083679 C62.86467306 75.4081357 61.39109934 77.42977932 59 80 C56.14675563 81.42662219 54.16545451 81.31033868 51 81 C45.36486363 77.7856029 44.36081732 73.30179313 42.66796875 67.421875 C42.24575798 66.03201385 42.24575798 66.03201385 41.8150177 64.61407471 C40.92289403 61.66399224 40.05496692 58.70741562 39.1875 55.75 C38.58556811 53.74431569 37.98206996 51.73910071 37.37695312 49.734375 C35.89976307 44.82817038 34.44422654 39.91600409 33 35 C32.80591553 35.58225342 32.61183105 36.16450684 32.41186523 36.7644043 C23.9375 62.1875 23.9375 62.1875 22.94018555 65.16235352 C22.33409003 66.99165711 21.74079205 68.82527516 21.16333008 70.66381836 C20.90962646 71.46440674 20.65592285 72.26499512 20.39453125 73.08984375 C20.17901611 73.787146 19.96350098 74.48444824 19.74145508 75.20288086 C18.5016429 78.20790471 16.81517339 79.49420958 14 81 C10.23735977 81.6271067 8.57107898 81.32447669 5.25 79.4375 C0.98135774 74.81313755 0.55007458 68.11148501 -0.55078125 62.06640625 C-0.69001511 61.31927368 -0.82924896 60.57214111 -0.97270203 59.80236816 C-1.42216924 57.38960155 -1.86743262 54.97608173 -2.3125 52.5625 C-4.56883005 40.3905778 -6.87716846 28.24793367 -9.6652832 16.18383789 C-10.70123834 11.49111249 -11.39007536 7.73517651 -10 3 C-7.02991864 -0.3000904 -4.31091137 -0.62867458 0 0 Z " fill="#040404" transform="translate(314,214)"/>
<path d="M0 0 C5.93151115 4.11910496 6.26514535 11.96512692 7.47265625 18.61328125 C7.6646183 19.65671944 7.6646183 19.65671944 7.86045837 20.72123718 C8.26439362 22.9177441 8.66394412 25.11501109 9.0625 27.3125 C9.464781 29.52781073 9.86810638 31.74289927 10.2752533 33.95732117 C10.64221388 35.95319396 11.00493213 37.94984535 11.36743164 39.9465332 C11.84317579 42.90008054 11.84317579 42.90008054 13 45 C13.1451001 44.4738208 13.2902002 43.9476416 13.43969727 43.40551758 C16.3242016 32.99905299 19.33719572 22.64200341 22.6875 12.375 C22.97246338 11.48143799 23.25742676 10.58787598 23.55102539 9.66723633 C23.8268042 8.83603271 24.10258301 8.0048291 24.38671875 7.1484375 C24.62608154 6.41802246 24.86544434 5.68760742 25.11206055 4.93505859 C26.12401452 2.72973904 27.09337937 1.49795607 29 0 C32.68820383 -0.46940776 34.97832815 -0.75013765 38.04296875 1.5 C40.70675499 4.90284071 41.6820121 8.32267785 42.875 12.4375 C43.12403076 13.25847168 43.37306152 14.07944336 43.62963867 14.92529297 C45.87573998 22.390752 48.00209996 29.8950285 50.08349609 37.40795898 C50.3202002 38.25559814 50.5569043 39.1032373 50.80078125 39.9765625 C51.00872314 40.73018066 51.21666504 41.48379883 51.4309082 42.26025391 C51.85755836 44.00829967 51.85755836 44.00829967 53 45 C53.20157715 43.90534424 53.4031543 42.81068848 53.61083984 41.68286133 C54.36229933 37.60978107 55.12056453 33.53799219 55.88085938 29.46655273 C56.20855583 27.70647952 56.5344222 25.94606452 56.85839844 24.18530273 C57.32522975 21.64995044 57.79869613 19.11591277 58.2734375 16.58203125 C58.41623138 15.79850784 58.55902527 15.01498444 58.70614624 14.2077179 C59.58968317 9.53493826 60.50435487 5.16868543 63.25 1.1875 C65.99122109 -0.67261431 67.7679738 -0.51712419 71 0 C73.9375 1.8125 73.9375 1.8125 76 5 C76.27155151 13.25374422 74.03438461 21.7608148 72.41796875 29.8046875 C72.16251785 31.08683136 71.90706696 32.36897522 71.64387512 33.68997192 C71.10601177 36.38176774 70.56314011 39.07249952 70.01733398 41.76269531 C69.32104336 45.19956292 68.64361402 48.63986604 67.97053051 52.0813427 C67.31990315 55.38754556 66.64886675 58.68953189 65.98046875 61.9921875 C65.74176559 63.22242645 65.50306244 64.45266541 65.25712585 65.72018433 C64.90204704 67.43819748 64.90204704 67.43819748 64.53979492 69.19091797 C64.23787483 70.696689 64.23787483 70.696689 63.92985535 72.23287964 C62.63751079 76.07871755 60.69288445 79.15355778 57 81 C53.40799494 81.39911167 51.5597565 81.34598446 48.453125 79.42578125 C45.50192217 76.50747399 44.5868234 73.77591331 43.5625 69.875 C43.15319943 68.44469327 42.74164992 67.01502863 42.328125 65.5859375 C42.01004883 64.46590332 42.01004883 64.46590332 41.68554688 63.32324219 C40.2913307 58.59839848 38.65369767 53.9512115 37.05493164 49.29248047 C35.45715085 44.57090602 34.15250079 39.85033507 33 35 C30.01812359 41.429671 28.03744586 48.09627975 26 54.875 C24.67524515 59.25266736 23.34435668 63.62830986 22 68 C21.58584839 69.35387817 21.58584839 69.35387817 21.16333008 70.73510742 C20.90962646 71.53537354 20.65592285 72.33563965 20.39453125 73.16015625 C20.17901611 73.84730713 19.96350098 74.53445801 19.74145508 75.24243164 C18.486005 78.21838986 16.79667314 79.50410506 14 81 C10.42801646 81.59533059 8.58804247 81.27350812 5.3125 79.75 C-1.33941653 71.83961278 -1.6428187 56.70684136 -3.5 46.625 C-4.09130782 43.42922949 -4.68523128 40.23395766 -5.28125 37.0390625 C-5.42465317 36.26744278 -5.56805634 35.49582306 -5.71580505 34.70082092 C-6.82765851 28.7743649 -8.0824765 22.89111183 -9.42407227 17.01196289 C-10.29334676 12.46586734 -11.02453352 7.5579641 -10 3 C-6.77441345 -0.10916411 -4.44415017 -0.64810523 0 0 Z " fill="#040404" transform="translate(121,214)"/>
<path d="M0 0 C1.95361328 0.90820312 1.95361328 0.90820312 3.18286133 3.18286133 C3.52357666 4.18148193 3.86429199 5.18010254 4.21533203 6.20898438 C4.80314453 7.87791748 4.80314453 7.87791748 5.40283203 9.58056641 C5.81146484 10.78181152 6.22009766 11.98305664 6.64111328 13.22070312 C16.92759303 42.1286024 30.02986967 69.8102444 52.95361328 90.90820312 C48.25606978 92.47405096 44.26815661 90.7199761 39.57861328 89.47070312 C38.55364746 89.19919434 37.52868164 88.92768555 36.47265625 88.64794922 C5.76477246 80.24731485 -22.13425285 65.63443051 -47.04638672 45.90820312 C-47.59133789 45.47894531 -48.13628906 45.0496875 -48.69775391 44.60742188 C-51.49933018 42.39703609 -54.28329695 40.16649765 -57.04638672 37.90820312 C-53.43499216 33.25321166 -49.66114518 29.76181675 -44.92138672 26.28320312 C-43.88510132 25.5160498 -43.88510132 25.5160498 -42.82788086 24.73339844 C-31.91919687 16.77639022 -20.42992894 9.61583613 -8.60888672 3.09570312 C-8.00036865 2.7518457 -7.39185059 2.40798828 -6.76489258 2.05371094 C-4.45628822 0.82166635 -2.65314759 -0.11901497 0 0 Z " fill="#61D8F8" transform="translate(151.04638671875,393.091796875)"/>
<path d="M0 0 C4.57272638 3.65966081 6.00045471 7.11893137 7.01953125 12.71484375 C7.16782883 13.4482045 7.3161264 14.18156525 7.46891785 14.93714905 C7.77752732 16.48099697 8.07704725 18.02668688 8.36791992 19.57397461 C8.81118611 21.93051493 9.28087848 24.28052712 9.75585938 26.63085938 C10.05363771 28.1377145 10.34991231 29.64486772 10.64453125 31.15234375 C10.85067802 32.19792702 10.85067802 32.19792702 11.06098938 33.26463318 C11.80132349 37.22946548 12.1360805 40.9689582 12 45 C12.66 45 13.32 45 14 45 C14.09869385 44.41806885 14.1973877 43.8361377 14.29907227 43.23657227 C15.58127177 36.23781392 17.62393458 29.65745241 19.9375 22.9375 C20.28490234 21.91333984 20.63230469 20.88917969 20.99023438 19.83398438 C21.67057173 17.82884697 22.35579351 15.8253588 23.04638672 13.82373047 C23.66292295 11.99811396 24.25491592 10.16394283 24.81689453 8.32080078 C25.18790283 7.11206299 25.18790283 7.11206299 25.56640625 5.87890625 C25.77338135 5.17451416 25.98035645 4.47012207 26.19360352 3.74438477 C27 2 27 2 30 0 C32.875 -0.4375 32.875 -0.4375 36 0 C41.03372728 3.95257918 42.42169984 8.10689585 44.11328125 14.01953125 C44.37255905 14.87810226 44.63183685 15.73667328 44.89897156 16.6212616 C45.71851945 19.34744626 46.5157482 22.07957637 47.3125 24.8125 C47.86637476 26.66905712 48.42169809 28.52518273 48.97851562 30.38085938 C50.33583095 34.91574917 51.67317728 39.45609959 53 44 C55.52440068 34.43915774 57.40489124 24.83288079 59.10546875 15.09570312 C59.30785156 13.99291016 59.51023437 12.89011719 59.71875 11.75390625 C59.89341797 10.76720947 60.06808594 9.7805127 60.24804688 8.76391602 C61.06955966 5.74432309 62.20700808 3.55660021 64 1 C66.84083641 -0.42041821 68.85477278 -0.31452272 72 0 C74.375 1.5 74.375 1.5 76 4 C76.51751618 11.05587893 75.08834288 17.60658346 73.6640625 24.49609375 C73.42464935 25.68421158 73.18523621 26.87232941 72.93856812 28.09645081 C72.17460116 31.87830608 71.39986507 35.65786431 70.625 39.4375 C70.11128991 41.97446991 69.59826212 44.51157807 69.0859375 47.04882812 C66.70048543 58.82910625 66.70048543 58.82910625 65.59796143 64.12521362 C65.21203482 65.98061181 64.83351485 67.8375733 64.46405029 69.69631958 C63.51249056 74.31848713 62.87626702 77.09279973 59 80 C56.11138291 81.44430855 54.20352299 81.37688506 51 81 C45.49821764 76.88231383 44.32634261 71.81840343 42.5625 65.375 C41.96980273 63.31870669 41.37603393 61.26272196 40.78125 59.20703125 C40.48734375 58.17400879 40.1934375 57.14098633 39.890625 56.07666016 C38.5306904 51.37877206 37.05115771 46.72089079 35.5625 42.0625 C35.06371859 40.49091191 34.56501205 38.91930006 34.06640625 37.34765625 C33.71449219 36.24292969 33.36257812 35.13820312 33 34 C32.62488281 35.258125 32.24976563 36.51625 31.86328125 37.8125 C30.51827143 42.31664697 29.16538802 46.81838447 27.80810547 51.31884766 C27.30050088 53.00299072 26.79413003 54.68750665 26.28955078 56.37255859 C19.84190346 77.85995088 19.84190346 77.85995088 16.0625 80.19921875 C13.12142571 81.34111312 11.13127444 81.44732492 8 81 C2.31938307 76.81543596 1.64264714 71.95164301 0.4296875 65.390625 C0.22191681 64.35041199 0.01414612 63.31019897 -0.19992065 62.23846436 C-0.85964177 58.91222666 -1.49247261 55.58150391 -2.125 52.25 C-2.55687192 50.05565001 -2.99044954 47.86163499 -3.42578125 45.66796875 C-4.65214251 39.45174283 -5.83435824 33.22786497 -7 27 C-7.16592651 26.12110107 -7.33185303 25.24220215 -7.50280762 24.33666992 C-7.94358954 21.99126486 -8.37620008 19.64455344 -8.8046875 17.296875 C-9.03913574 16.01651367 -9.27358398 14.73615234 -9.51513672 13.41699219 C-10.70514653 5.03059877 -10.70514653 5.03059877 -8.375 1.625 C-5.24988831 -0.51323431 -3.71837535 -0.6829669 0 0 Z " fill="#030303" transform="translate(217,214)"/>
<path d="M0 0 C-0.71929687 0.70640625 -1.43859375 1.4128125 -2.1796875 2.140625 C-25.63315966 25.64354229 -40.64532471 57.19032487 -49.99462891 88.70141602 C-50.32640137 89.45994873 -50.65817383 90.21848145 -51 91 C-54 92 -54 92 -56.03027344 91.26245117 C-56.79887695 90.86002197 -57.56748047 90.45759277 -58.359375 90.04296875 C-59.22046875 89.59493896 -60.0815625 89.14690918 -60.96875 88.68530273 C-62.34546875 87.94389038 -62.34546875 87.94389038 -63.75 87.1875 C-65.16539062 86.43351929 -65.16539062 86.43351929 -66.609375 85.66430664 C-82.26899683 77.19486613 -96.66323601 66.78597748 -110 55 C-91.2040947 35.8308908 -67.38061341 22.74035833 -43 12 C-41.98550781 11.55140625 -40.97101563 11.1028125 -39.92578125 10.640625 C-32.46344279 7.57199984 -24.75314605 5.39376512 -17 3.1875 C-15.90042969 2.87288818 -14.80085938 2.55827637 -13.66796875 2.23413086 C-12.62253906 1.94417236 -11.57710938 1.65421387 -10.5 1.35546875 C-9.5615625 1.09403076 -8.623125 0.83259277 -7.65625 0.56323242 C-5.01957433 0.00415055 -2.68605625 -0.10553233 0 0 Z " fill="#61D8F8" transform="translate(204,24)"/>
<path d="M0 0 C40.23595534 4.43325031 79.1010016 28.00087095 109 54 C105.38867612 58.65490037 101.61491401 62.1467049 96.875 65.625 C96.18341797 66.13643555 95.49183594 66.64787109 94.77929688 67.17480469 C60.71858296 92 60.71858296 92 51 92 C50.74943848 91.2972998 50.49887695 90.59459961 50.24072266 89.87060547 C39.3699061 59.54571085 27.28198777 31.5692826 6 7 C4.8718611 5.68405198 3.74424161 4.36765847 2.6171875 3.05078125 C1.74489749 2.03376339 0.87254247 1.01680127 0 0 Z " fill="#97E4FA" transform="translate(297,24)"/>
<path d="M0 0 C10.22082833 4.99094994 20.23692023 10.15844333 30 16 C31.60681641 16.81597656 31.60681641 16.81597656 33.24609375 17.6484375 C40.21773904 21.65554702 40.21773904 21.65554702 41.65576172 25.96533203 C42.60597505 30.51100107 42.92511568 35.07682588 42.97192383 39.71435547 C42.99124943 41.28762741 43.06183368 42.86082854 43.17456055 44.43017578 C43.4993165 50.38545662 43.4993165 50.38545662 41.12109375 53.3125 C39.79271484 54.1478125 39.79271484 54.1478125 38.4375 55 C37.42816406 55.65097656 36.41882813 56.30195313 35.37890625 56.97265625 C33.70634766 57.97619141 33.70634766 57.97619141 32 59 C30.84141231 59.72621501 29.68387993 60.45411604 28.52734375 61.18359375 C24.73499729 63.54474968 20.87993739 65.78639759 17 68 C16.01386719 68.56702637 16.01386719 68.56702637 15.0078125 69.14550781 C4.15385782 75.32740515 -7.02398798 79.96220149 -18.76660156 84.18798828 C-20.58079459 84.84758667 -22.38239377 85.54174891 -24.1796875 86.24609375 C-29.702478 88.4031715 -35.30775221 89.91979848 -41.0625 91.3125 C-41.8143457 91.49651367 -42.56619141 91.68052734 -43.34082031 91.87011719 C-48.75486905 93.12256548 -48.75486905 93.12256548 -51 92 C-50.56792236 91.5860498 -50.13584473 91.17209961 -49.69067383 90.74560547 C-24.37257492 66.02974488 -11.49596486 32.69721502 0 0 Z " fill="#97E3F9" transform="translate(348,392)"/>
<path d="M0 0 C1.05795861 -0.00199105 2.11591722 -0.0039821 3.20593518 -0.00603348 C4.37226304 -0.00312064 5.5385909 -0.0002078 6.74026203 0.00279331 C7.97605812 0.00193889 9.21185421 0.00108446 10.48509866 0.00020415 C13.92161703 -0.00116122 17.35807881 0.00197562 20.79459035 0.00698221 C24.49804871 0.0112916 28.20150524 0.00983993 31.9049654 0.00907993 C38.32357099 0.00855501 44.74216643 0.01169852 51.16076946 0.01731777 C60.44104719 0.02543703 69.72132 0.02804843 79.0016009 0.02930576 C94.0574198 0.03149561 109.1132333 0.03815388 124.16904926 0.04760838 C138.79632763 0.05678423 153.42360453 0.06386422 168.0508852 0.06811619 C168.95216969 0.06837891 169.85345419 0.06864164 170.78205033 0.06891232 C175.30342794 0.07021734 179.82480556 0.07148105 184.34618318 0.07272422 C221.86892947 0.08309474 259.39166961 0.10071124 296.91441059 0.12304783 C296.91441059 0.45304783 296.91441059 0.78304783 296.91441059 1.12304783 C152.86941059 1.61804783 152.86941059 1.61804783 5.91441059 2.12304783 C1.79819912 8.58979874 1.79819912 8.58979874 0.76051044 15.28920078 C0.75190998 16.16242985 0.74330952 17.03565891 0.73444843 17.93534946 C0.73018848 18.89584705 0.72592854 19.85634464 0.7215395 20.84594822 C0.71336201 21.85590855 0.70518452 22.86586887 0.69675922 23.90643406 C0.67187379 27.26118466 0.65537804 30.61589276 0.64097309 33.97070408 C0.63564941 35.11605562 0.63032574 36.26140717 0.62484074 37.44146633 C0.5980911 43.50776469 0.57872497 49.57404237 0.56431293 55.64038181 C0.54769205 61.89936078 0.50294026 68.15781045 0.45194149 74.41658974 C0.41823475 79.23370543 0.40673147 84.05069628 0.40108585 88.86791897 C0.39437923 91.17433227 0.37917264 93.48073753 0.35519505 95.78703594 C0.32347873 99.02325283 0.32351746 102.25805338 0.3309145 105.49438572 C0.31450916 106.44071369 0.29810383 107.38704166 0.28120136 108.36204624 C0.35140261 115.89797171 1.85991204 117.82495044 5.91441059 125.12304783 C101.61441059 125.45304783 197.31441059 125.78304783 295.91441059 126.12304783 C295.91441059 126.45304783 295.91441059 126.78304783 295.91441059 127.12304783 C257.83238151 127.21460587 219.75036902 127.28508783 181.66825214 127.32730915 C177.17217978 127.33231197 172.67610763 127.33748926 168.18003559 127.34277439 C166.83740667 127.34434825 166.83740667 127.34434825 165.46765393 127.34595391 C150.97507243 127.36335853 136.48255441 127.39489654 121.99001056 127.43165901 C107.1190127 127.46906685 92.24804808 127.49128335 77.3770051 127.49940181 C68.20096187 127.50488991 59.02509807 127.52222278 49.84911007 127.5547137 C43.5565482 127.57585963 37.26407906 127.5822477 30.97148424 127.57705334 C27.3410924 127.57449167 23.71101407 127.57841487 20.08067799 127.59986973 C16.14220528 127.62297532 12.20413995 127.61499268 8.26560688 127.6040659 C7.12162512 127.61571726 5.97764337 127.62736863 4.79899549 127.63937306 C-1.96293638 127.58861338 -6.32964237 126.74758821 -12.08558941 123.12304783 C-15.88487505 119.12379978 -18.32776717 115.38969687 -18.35301495 109.81009007 C-18.36154491 108.95501865 -18.37007488 108.09994724 -18.37886333 107.21896458 C-18.37795696 106.28899662 -18.37705059 105.35902866 -18.37611675 104.40087986 C-18.38283398 103.41506931 -18.3895512 102.42925877 -18.39647198 101.41357517 C-18.41547983 98.15261904 -18.41937758 94.89186842 -18.42152691 91.63086033 C-18.42795281 89.36408497 -18.43468101 87.09731045 -18.44169903 84.83053684 C-18.45367872 80.07759776 -18.45737913 75.32473141 -18.45619488 70.5717783 C-18.45599163 64.48300423 -18.48329675 58.39469663 -18.5177393 52.30603313 C-18.53998222 47.62370762 -18.54403321 42.94149483 -18.54297543 38.25912189 C-18.5453352 36.01444866 -18.55417979 33.76977249 -18.56964016 31.52515125 C-18.58924709 28.38443728 -18.58348242 25.2447353 -18.57142925 22.10400486 C-18.58266827 21.17808537 -18.59390728 20.25216587 -18.60548687 19.29818821 C-18.5407173 12.6528143 -17.16759192 9.29547584 -12.48793316 4.47851658 C-8.19907464 1.05886672 -5.41205869 -0.00224288 0 0 Z " fill="#E3D1DE" transform="translate(104.08558940887451,190.87695217132568)"/>
<path d="M0 0 C3.375 1.4375 3.375 1.4375 6 4 C6.03074818 6.00082805 6.04199612 8.0029253 5.98486328 10.00317383 C6.00347977 13.68893885 6.35109582 17.31496703 6.734375 20.9765625 C6.81238342 21.72919876 6.89039185 22.48183502 6.97076416 23.25727844 C7.1395022 24.86917026 7.30963536 26.48091652 7.48101807 28.0925293 C8.81502974 40.65227792 10.0487801 53.21675326 11.0859375 65.8046875 C11.17363403 66.86563629 11.26133057 67.92658508 11.35168457 69.01968384 C11.77906342 74.21633052 12.19681689 79.41358882 12.60449219 84.61181641 C12.75959431 86.52247485 12.91485977 88.43312005 13.0703125 90.34375 C13.13479584 91.20362518 13.19927917 92.06350037 13.26571655 92.94943237 C13.59270338 96.90607597 14.0865022 100.565663 15.16357422 104.39257812 C16 108 16 108 14.3125 111.375 C12 114 12 114 9 116 C4.93041446 115.92600754 2.77940481 115.77375695 -0.15625 112.859375 C-2.34093343 109.47126426 -2.69187408 107.32122399 -3.0625 103.3125 C-3.13355957 102.59376709 -3.20461914 101.87503418 -3.27783203 101.13452148 C-3.53851866 98.42452343 -3.76925254 95.71271108 -4 93 C-4.21416525 90.59889772 -4.42906614 88.19786099 -4.64453125 85.796875 C-5.0186968 81.60886299 -5.3882786 77.42051833 -5.74755859 73.23120117 C-6.47478442 64.77506409 -7.24987899 56.32540594 -8.08203125 47.87890625 C-8.1737561 46.94218582 -8.26548096 46.00546539 -8.35998535 45.0403595 C-8.90498181 39.47663637 -8.90498181 39.47663637 -9.46185303 33.91409302 C-12.20130542 6.83729065 -12.20130542 6.83729065 -8.875 1.75 C-5.43956043 -0.34113713 -3.95036196 -0.72557669 0 0 Z " fill="#015D7E" transform="translate(412,377)"/>
<path d="M0 0 C4.35970831 1.34849837 8.31341438 3.04907846 12.375 5.125 C13.43460938 5.66382813 14.49421875 6.20265625 15.5859375 6.7578125 C16.38257813 7.16773438 17.17921875 7.57765625 18 8 C15 23 12 38 9 53 C-2.22 53 -13.44 53 -25 53 C-24.24078328 48.44469968 -23.58531727 45.57625601 -21.8125 41.5078125 C-21.14166382 39.96637573 -21.14166382 39.96637573 -20.45727539 38.39379883 C-19.73592407 36.77574341 -19.73592407 36.77574341 -19 35.125 C-18.50814209 34.01471436 -18.01628418 32.90442871 -17.50952148 31.76049805 C-12.50667948 20.63383524 -6.84966941 10.0982822 0 0 Z " fill="#97E4FA" transform="translate(130,123)"/>
<path d="M0 0 C11.22 0 22.44 0 34 0 C41.59283388 36.32247557 41.59283388 36.32247557 43 45 C40.3773768 46.33819498 37.75213401 47.6707151 35.125 49 C34.37863281 49.3815625 33.63226563 49.763125 32.86328125 50.15625 C31.79013672 50.69765625 31.79013672 50.69765625 30.6953125 51.25 C30.03547363 51.58515625 29.37563477 51.9203125 28.69580078 52.265625 C27 53 27 53 25 53 C23.38812391 50.63488182 21.92876984 48.28681119 20.5 45.8125 C20.06147705 45.0587207 19.6229541 44.30494141 19.17114258 43.52832031 C0 9.96088948 0 9.96088948 0 0 Z " fill="#97E4FA" transform="translate(105,333)"/>
<path d="M0 0 C-2.17739578 2.17739578 -3.46367072 2.6557165 -6.33984375 3.62890625 C-7.22816895 3.93666992 -8.11649414 4.24443359 -9.03173828 4.56152344 C-10.47009033 5.05700684 -10.47009033 5.05700684 -11.9375 5.5625 C-27.85005176 11.22501639 -42.39360774 18.25494419 -56.68017578 27.27832031 C-57.47794434 27.77686523 -58.27571289 28.27541016 -59.09765625 28.7890625 C-59.80414307 29.23975098 -60.51062988 29.69043945 -61.23852539 30.15478516 C-61.81981201 30.43370605 -62.40109863 30.71262695 -63 31 C-63.66 30.67 -64.32 30.34 -65 30 C-49.75451742 10.85311439 -26.55759565 -10.11717929 0 0 Z " fill="#5FD4F3" transform="translate(264,21)"/>
<path d="M0 0 C3.17032825 0.64059688 5.5449881 1.75290042 8.31640625 3.40625 C9.15333008 3.89851074 9.99025391 4.39077148 10.85253906 4.89794922 C11.74682617 5.42662598 12.64111328 5.95530273 13.5625 6.5 C29.80624075 15.91979639 48.09863186 26.42120869 67 29 C59.67746175 33.88169216 49.48771892 32.77455117 41 32 C36.56547047 30.92744026 32.94194266 29.26836641 29 27 C27.69289062 26.32517578 27.69289062 26.32517578 26.359375 25.63671875 C16.43525919 20.02175849 5.33539045 10.23924196 0 0 Z " fill="#61D7F7" transform="translate(199,457)"/>
<path d="M0 0 C1.34033203 2.48095703 1.34033203 2.48095703 2.5078125 5.7578125 C2.93707031 6.94117188 3.36632812 8.12453125 3.80859375 9.34375 C4.24756207 10.60410878 4.68636281 11.86452594 5.125 13.125 C5.56714844 14.34960938 6.00929687 15.57421875 6.46484375 16.8359375 C8.50025351 22.51786687 10.38261953 28.18716584 12 34 C6.74436553 29.70968615 2.36259203 25.18004024 -2 20 C-2.89835987 18.98575542 -3.79819815 17.97281912 -4.69921875 16.9609375 C-5.63334468 15.89108943 -6.56694009 14.82077792 -7.5 13.75 C-7.95802002 13.24259277 -8.41604004 12.73518555 -8.88793945 12.21240234 C-12.03313182 8.54714833 -12.03313182 8.54714833 -11.86328125 5.7421875 C-9.55605034 1.08596585 -5.11279828 -2.28617058 0 0 Z " fill="#93DFF4" transform="translate(153,394)"/>
<path d="M0 0 C1.17134763 3.51404289 0.80202857 4.1961745 -0.51171875 7.53515625 C-0.85783203 8.42783203 -1.20394531 9.32050781 -1.56054688 10.24023438 C-1.93244141 11.17158203 -2.30433594 12.10292969 -2.6875 13.0625 C-3.21633789 14.41891602 -3.21633789 14.41891602 -3.75585938 15.80273438 C-4.82601581 18.53975239 -5.910319 21.27070099 -7 24 C-7.38365723 24.96147949 -7.76731445 25.92295898 -8.16259766 26.91357422 C-9.10679667 29.27636249 -10.05253073 31.63852157 -11 34 C-15.23429756 32.68938409 -19.07407404 31.05643741 -23 29 C-22.50038365 24.69080895 -19.74890538 22.00258817 -17 18.875 C-16.50959229 18.30676514 -16.01918457 17.73853027 -15.51391602 17.15307617 C-4.88686616 4.88686616 -4.88686616 4.88686616 0 0 Z " fill="#96E3F8" transform="translate(163,82)"/>
</svg>
